<svg preserveAspectRatio="none" width="100%" height="100%" overflow="visible" style="display: block;" viewBox="0 0 193.288 193.976" fill="none" xmlns="http://www.w3.org/2000/svg">
<path id="Vector" d="M0.0375175 12.1996C0.0375175 8.02367 0.0375175 4.34976 0.0375175 0.381275C2.20339 0.27722 3.82578 0.131789 5.44817 0.13117C40.9849 0.117048 76.5254 -0.202427 112.057 0.210451C146.15 0.606606 171.324 16.2178 186.393 47.5367C191.203 57.5334 193.274 68.2922 193.276 79.432C193.283 116.454 193.29 153.476 193.287 190.498C193.287 191.471 193.171 192.443 193.077 193.921C191.347 193.921 189.894 193.921 188.441 193.921C152.403 193.92 116.365 194.073 80.3289 193.875C42.2262 193.666 11.4125 169.49 2.47737 132.677C0.78407 125.701 0.195349 118.301 0.142657 111.089C-0.0967803 78.2946 0.0375786 45.4977 0.0375175 12.1996Z" fill="var(--fill-0, #077D57)"/>
</svg>
