<svg preserveAspectRatio="none" width="100%" height="100%" overflow="visible" style="display: block;" viewBox="0 0 240.159 219.574" fill="none" xmlns="http://www.w3.org/2000/svg">
<g id="Group 3">
<path id="Vector" d="M79.9573 133.908C56.0322 102.619 58.2791 63.6454 85.4493 35.7441C97.0362 23.8455 108.76 12.0842 120.679 0C121.909 1.09494 123.046 2.00016 124.063 3.02759C134.689 13.764 145.327 24.4877 155.901 35.2767C185.882 65.8679 185.958 109.683 156.068 140.241C144.569 151.997 132.976 163.66 121.915 174.869C107.932 161.233 94.0626 147.706 79.9573 133.908Z" fill="var(--fill-0, #077D57)"/>
<path id="Vector_2" d="M212.426 209.631C192.349 224.07 168.292 222.711 150.783 206.018C142.312 197.942 134.343 189.325 125.603 180.398C135.851 170.505 145.291 159.91 156.199 151.202C173.55 137.352 198.742 138.993 215.068 154.244C224 162.589 232.179 171.76 240.159 180.002C231.144 189.656 221.925 199.529 212.426 209.631Z" fill="var(--fill-0, #077D57)"/>
<path id="Vector_3" d="M86.5382 209.937C66.01 224.381 41.7716 222.411 24.1817 204.991C16.2194 197.106 8.43103 189.04 5.65946e-05 180.484C10.5229 170.36 20.0747 159.624 31.1521 150.87C48.1875 137.407 73.019 139.05 89.2249 153.97C98.3354 162.359 106.519 171.781 114.226 179.806C105.32 189.529 96.0734 199.623 86.5382 209.937Z" fill="var(--fill-0, #077D57)"/>
</g>
</svg>
