<svg preserveAspectRatio="none" width="100%" height="100%" overflow="visible" style="display: block;" viewBox="0 0 246 250" fill="none" xmlns="http://www.w3.org/2000/svg">
<g id="1">
<path id="Vector" d="M110.797 160.895C114.725 154.595 119.956 149.996 126.591 148.842C124.536 138.878 122.589 129.44 120.578 119.689C120.732 119.665 119.964 119.786 119.285 119.894C120.738 115.255 122.156 110.726 123.897 105.165C118.044 109.403 115.863 117.176 115.268 131.906C114.713 132.276 114.518 132.283 114.323 132.29C114.262 131.398 114.202 130.507 113.836 129.347C113.326 129.162 113.207 129.313 113.172 129.53C110.589 130.485 108.075 131.918 105.41 132.309C94.1123 133.967 85.2667 139.433 79.2578 149.122C77.8521 151.388 77.7948 154.5 77.0799 157.373C76.791 156.492 76.4912 155.579 75.8626 153.663C71.3047 157.734 67.1212 161.471 63.5138 164.693C63.8539 161.872 66.6689 158.543 70.0314 156.067C72.5777 154.193 74.4142 151.343 76.2349 148.759C75.9032 148.59 75.9201 148.651 76.2302 148.807C76.6286 148.564 76.7168 148.165 76.7689 147.765C76.7328 147.765 76.7311 147.838 76.9774 148.013C77.3852 148.068 77.5466 147.947 77.9155 147.65C78.7606 145.987 79.3982 144.5 80.0358 143.012C87.7166 136.971 95.5471 131.265 105.728 130.288C110.014 129.877 112.063 127.369 112.372 123.045C112.638 119.313 113.308 115.61 113.835 111.631C108.425 112.747 104.072 114.87 100.685 119.187C98.4641 122.017 95.5069 124.264 92.4182 126.246C99.2492 120.309 103.326 110.919 113.639 109.03C115.584 108.674 116.915 104.936 118.53 102.758C118.294 102.472 118.057 102.187 117.82 101.901C116.206 102.598 114.626 103.396 112.97 103.973C108.399 105.565 103.849 107.256 99.1903 108.541C95.3935 109.589 90.9688 109.298 90.2399 115.333C89.9304 114.997 89.6209 114.66 89.3114 114.323C89.459 113.3 89.6066 112.277 89.8115 110.855C85.3767 111.382 81.6026 112.576 78.7741 115.746C72.9271 122.298 66.9488 128.757 61.5214 135.65C59.4092 138.333 58.6138 142.072 57.2702 145.351C56.8859 146.289 56.6821 147.302 55.775 148.158C56.0782 144.659 56.3815 141.159 56.7481 136.928C52.0679 138.973 47.7343 140.865 42.9605 142.765C42.3337 142.561 42.1472 142.35 41.9607 142.139C42.4551 141.528 42.9494 140.917 43.7609 139.914C42.0284 139.754 40.6518 139.628 39.0866 139.484C42.9626 138.739 46.9365 138.688 50.2789 137.202C60.7115 132.564 68.8462 124.972 76.1596 115.032C72.7122 115.345 70.0312 115.588 67.1259 115.851C77.474 112.103 87.6404 108.42 98.9038 104.34C88.2862 105.373 78.3274 101.252 68.8071 107.076C67.4739 106.852 66.4452 106.734 65.1413 106.761C64.7574 107.227 64.6486 107.55 64.5603 107.85C64.5808 107.828 64.5334 107.79 64.5334 107.79C63.5706 107.908 62.4557 107.751 61.669 108.189C55.3224 111.722 48.5757 113.839 41.3395 114.419C40.7036 114.47 40.0973 114.893 38.8266 115.202C37.7186 115.222 37.2613 115.184 36.8039 115.146C24.633 113.019 12.7318 107.901 0 111.991C5.16285 108.693 15.8335 108.16 23.0437 110.239C34.7362 113.611 46.1554 112.62 57.295 106.84C55.8966 106.579 54.4983 106.318 53.1581 106.068C67.1305 104.176 80.5615 99.0699 95.1581 100.373C101.993 100.984 109.222 98.5055 116.104 96.7595C121.1 95.492 123.821 92.4412 125.134 88.4096C86.9872 88.4096 49.0035 88.4096 11.0198 88.4096C11.0203 88.0241 11.0208 87.6385 11.0213 87.253C49.2209 87.253 87.4205 87.253 125.772 87.253C125.772 79.5932 126.277 72.6931 125.644 65.8999C124.855 57.4235 123.081 49.0421 121.872 40.5995C121.731 39.6153 122.473 38.5033 122.805 37.4506C123.389 38.3071 124.308 39.0951 124.497 40.0321C125.219 43.6051 125.706 47.226 126.466 51.9976C127.981 49.8305 129.35 48.5463 129.898 46.9733C132.252 40.2155 134.342 33.3654 136.59 26.5692C136.919 25.5734 137.576 24.687 138.081 23.75C138.467 23.903 138.852 24.0559 139.238 24.2089C138.946 26.0044 138.889 27.8786 138.323 29.5819C135.599 37.7775 132.644 45.8962 129.976 54.1096C129.051 56.9591 128.291 59.9888 128.195 62.9602C127.948 70.6608 128.112 78.3748 128.112 87.0985C165.73 87.0985 202.342 87.0985 238.953 87.0985C238.953 87.5051 238.953 87.9118 238.954 88.3185C202.574 88.3185 166.195 88.3185 129.195 88.3185C130.913 93.5637 134.2 96.6627 138.611 97.582C146.61 99.2491 154.767 101.038 162.871 101.103C174.584 101.197 186.03 101.281 196.733 106.96C198.529 107.913 200.912 107.748 203.259 108.138C202.775 108.5 202.288 108.864 201.586 109.387C210.961 112.649 220.314 113.184 229.939 111.644C234.964 110.839 240.107 110.777 245.57 110.758C245.963 111.344 245.981 111.551 246 111.758C237.868 112.725 229.737 113.704 221.603 114.651C219.36 114.912 217.106 115.076 214.751 115.295C215.302 118.723 217.179 119.487 220.261 118.993C222.52 118.631 224.882 118.922 227.199 119.739C225.38 119.739 223.49 119.416 221.757 119.803C217.719 120.707 214.277 120.87 212.496 116.058C212.2 115.257 210.658 114.776 209.599 114.435C206.153 113.325 202.331 112.945 199.251 111.211C188.811 105.335 177.668 103.978 165.349 104.784C163.959 105.313 163.247 105.925 162.535 106.537C155.649 105.06 148.764 103.582 141.459 102.015C145.153 107.028 149.043 110.99 154.979 113.033C155.251 113.617 155.246 113.903 155.242 114.188C154.188 113.926 153.135 113.665 151.622 113.178C150.952 113.296 150.74 113.64 150.529 113.984C150.731 114.48 150.894 114.998 151.141 115.471C155.817 124.445 155.169 126.514 167.477 123.567C172.024 122.478 176.394 123.338 180.825 125.229C186.861 127.804 193.162 129.856 199.501 131.56C202.333 132.322 205.536 131.689 208.62 132.053C205.754 132.536 202.888 133.018 200.023 133.501C199.869 133.925 199.715 134.35 199.561 134.775C202.242 136.171 204.81 138.39 207.631 138.785C212.748 139.501 216.805 141.63 220.311 145.568C220.173 146.066 220.051 146.184 219.928 146.303C216.28 144.275 212.631 142.246 208.19 139.777C207.62 145.741 206.79 150.225 209.431 154.832C209.349 155.254 209.079 155.479 209.079 155.479C208.122 152.735 206.749 150.058 206.309 147.233C205.691 143.26 205.185 139.865 200.838 137.837C193.083 134.22 185.733 129.732 178.001 126.061C172.47 123.435 166.997 125.608 161.4 127.958C160.962 128.333 160.82 128.376 160.678 128.419C153.334 127.86 150.567 122.286 147.013 116.884C143.913 112.172 139.137 108.573 134.673 104.211C134.07 104.31 133.896 104.68 133.721 105.05C134.611 107.139 135.613 109.188 136.369 111.326C137.976 115.867 138.519 120.964 144.403 122.656C145.872 123.078 146.807 125.374 147.892 127.201C147.796 127.594 147.522 127.828 147.522 127.828C145.275 125.696 143.028 123.564 140.781 121.432C140.437 121.731 140.093 122.029 139.749 122.328C140.506 126.797 141.451 131.088 145.215 134.391C150.177 138.745 154.719 143.591 159.778 147.82C164.057 151.398 168.818 154.392 173.346 157.673C173.601 157.858 173.668 158.305 174.115 159.243C172.201 158.634 170.786 158.184 168.483 157.452C169.989 161.125 171.251 164.202 172.537 167.338C171.281 165.727 169.802 164.18 168.726 162.389C163.021 152.895 155.319 145.251 146.379 138.263C146.546 139.317 146.712 140.37 146.596 141.741C146.097 142.058 145.881 142.057 145.665 142.056C144.019 138.86 142.2 135.739 140.773 132.448C139.176 128.762 137.91 124.93 136.548 121.144C136.048 119.757 135.684 118.32 135.181 116.649C134.394 117.02 133.75 117.324 134.124 117.148C132.584 112.645 131.095 108.289 129.605 103.933C128.855 104.033 128.106 104.134 127.357 104.234C127.174 109.987 125.852 116.015 127.136 121.416C128.377 126.631 132.305 131.2 134.909 136.487C131.876 133.642 128.844 130.798 125.397 127.565C126.802 133.043 128.145 138.543 129.632 144.004C130.83 148.398 131.718 152.973 133.63 157.047C135.638 161.327 138.701 165.106 141.439 169.532C141.562 170.118 141.55 170.276 141.537 170.434C141.235 170.567 140.933 170.701 140.335 171.079C139.759 171.334 139.48 171.344 139.201 171.355C137.598 168.135 135.996 164.916 134.357 161.624C131.291 169.086 128.24 175.948 125.751 183.01C125.205 184.56 126.157 187.227 127.303 188.671C129.641 191.618 131.88 194.291 130.047 198.035C128.38 194.647 126.597 191.027 124.448 186.662C120.697 193.642 120.468 199.752 122.534 205.881C124.04 210.348 126.497 214.521 127.718 219.046C128.674 222.594 128.546 226.477 128.618 230.216C128.743 236.748 128.653 243.285 128.125 250C127.406 245.572 126.686 241.144 125.655 236.614C125.342 236.512 125.374 236.552 125.374 236.552C128.303 230.355 126.847 224.353 124.778 218.279C122.23 210.797 119.933 203.229 117.403 195.311C114.861 195.654 112.193 197.036 112.704 201.901C112.228 202.259 111.96 202.274 111.691 202.28C110.751 203.323 109.811 204.365 108.482 205.377C107.99 205.255 107.887 205.165 107.784 205.075C108.447 203.755 109.194 202.47 109.758 201.108C111.386 197.182 113.199 193.519 117.89 192.446C118.678 192.266 119.655 191.441 119.926 190.689C123.302 181.313 126.957 172.006 129.656 162.429C130.677 158.807 129.426 154.537 129.205 150.461C119.507 152.488 113.807 157.365 112.751 166.753C112.662 167.545 112.564 168.358 112.642 169.144C113.041 173.14 113.497 177.13 113.934 181.122C113.481 181.162 113.029 181.202 112.576 181.242C112.576 178.15 112.576 175.058 112.576 170.758C110.943 173.744 109.888 175.672 108.426 177.65C107.83 177.461 107.641 177.223 107.451 176.984C108.749 172.145 110.048 167.307 111.093 162.099C110.826 161.451 110.811 161.173 110.797 160.895Z" fill="var(--fill-0, #077D57)"/>
<path id="Vector_2" d="M115.796 12.7271C116.617 11.7102 117.269 10.9162 118.022 10C121.043 12.2295 123.973 14.2297 126.721 16.4609C130.064 19.1753 130.832 23.2049 128.598 26.8011C126.651 29.9346 124.368 32.8517 121.96 36.25C118.534 33.6288 115.11 31.3983 112.162 28.6397C109.466 26.1159 109.228 22.7316 111.128 19.4965C112.468 17.2167 114.117 15.1255 115.796 12.7271Z" fill="var(--fill-0, #077D57)"/>
<path id="Vector_3" d="M184.21 68.75C189.348 68.7753 194.224 68.9751 199.797 69.2034C198.676 74.1779 198.117 78.0318 196.903 81.6552C195.695 85.2585 192.708 86.7158 189.06 86.121C185.721 85.5765 182.432 84.7063 178.568 83.8583C180.363 78.6902 179.248 72.8255 184.21 68.75Z" fill="var(--fill-0, #077D57)"/>
<path id="Vector_4" d="M94.9034 77.3766C94.8478 78.6851 94.9488 80.438 94.4513 80.6366C91.3325 81.882 88.139 83.1918 84.8556 83.6786C81.5984 84.1615 79.2025 82.1522 78.0415 78.9861C76.9667 76.0549 76.056 73.0612 74.9237 69.6443C78.2886 68.5273 81.3865 67.2578 84.6004 66.4948C88.3707 65.5996 91.2314 67.1826 92.7306 70.8642C93.5536 72.885 94.1079 75.0193 94.9034 77.3766Z" fill="var(--fill-0, #077D57)"/>
<path id="Vector_5" d="M140.281 21.8798C139.27 22.1884 138.005 22.7148 137.772 22.4063C135.644 19.5912 133.414 16.7892 131.777 13.6671C130.229 10.7152 131.592 7.98651 133.906 5.95818C136.141 3.99838 138.552 2.25244 141.41 0C143.607 3.11762 146.042 5.9976 147.818 9.26151C149.452 12.2626 148.384 15.1997 145.891 17.4053C144.169 18.9286 142.306 20.2814 140.281 21.8798Z" fill="var(--fill-0, #077D57)"/>
<path id="Vector_6" d="M168.352 78.75C165.286 78.3148 162.553 77.8984 159.864 77.4889C159.464 61.4779 163.562 60.9238 176.071 63.9227C175.848 73.983 175.066 78.1808 168.352 78.75Z" fill="var(--fill-0, #077D57)"/>
<path id="Vector_7" d="M113.87 132.735C114.2 132.507 114.395 132.5 114.883 132.5C114.742 135.375 114.308 138.244 113.898 140.946C113.665 140.59 113.187 139.863 112.471 138.772C108.415 143.631 104.467 148.029 102.705 154.11C101.96 156.683 99.8663 158.859 98.0364 161.247C97.6874 161.279 97.4009 161.031 97.4009 161.031C100.416 155.213 103.265 149.299 106.504 143.611C108.623 139.89 111.306 136.496 113.87 132.735Z" fill="var(--fill-0, #077D57)"/>
<path id="Vector_8" d="M109.995 82.0004C112.663 82.3744 115.564 79.8857 117.381 83.5648C110.781 86.5619 99.6639 84.6216 96.1522 80C100.643 80.6784 105.134 81.3542 109.995 82.0004Z" fill="var(--fill-0, #077D57)"/>
<path id="Vector_9" d="M143.781 80.1973C147.004 79.0015 149.892 77.7782 152.859 76.8014C154.19 76.3633 155.681 76.4186 157.098 76.25C157.179 76.6204 157.259 76.9908 157.34 77.3613C152.497 79.8299 147.655 82.2984 142.355 85C142.767 83.268 143.123 81.7691 143.781 80.1973Z" fill="var(--fill-0, #077D57)"/>
<path id="Vector_10" d="M168.987 81.1604C171.575 81.3317 173.81 81.4822 176.045 81.6326C176.054 82.0566 176.062 82.4806 176.071 82.9046C173.333 82.9046 170.589 82.8002 167.859 82.9329C164.91 83.0762 161.974 83.4412 158.589 83.75C159.882 82.3588 161.007 81.1492 162.075 80C164.382 80.4008 166.508 80.7702 168.987 81.1604Z" fill="var(--fill-0, #077D57)"/>
<path id="Vector_11" d="M138.626 171.655C138.899 171.27 139.155 171.259 139.602 171.25C140.643 175.322 141.491 179.392 142.354 183.861C142.37 184.26 142.18 184.497 142.18 184.497C141.394 183.503 140.607 182.51 139.463 181.063C139.306 183.508 139.178 185.503 139.05 187.498C138.903 187.498 138.756 187.499 138.609 187.5C138.609 182.343 138.609 177.186 138.626 171.655Z" fill="var(--fill-0, #077D57)"/>
<path id="Vector_12" d="M35.5497 115C36.2633 115.001 36.6993 115.039 37.4619 115.109C33.584 116.474 29.4107 117.934 25.1617 119.085C22.9678 119.679 20.6394 119.722 17.9934 120C17.615 119.986 17.4822 119.848 17.4822 119.848C19.8387 119.062 22.1651 118.148 24.5587 117.519C28.1048 116.586 31.6986 115.854 35.5497 115Z" fill="var(--fill-0, #077D57)"/>
<path id="Vector_13" d="M64.602 106.25C65.5375 106.371 66.473 106.492 67.4315 106.879C65.793 109.51 64.137 111.879 62.4685 114.237C60.9831 116.337 59.4837 118.424 57.4416 120C59.6185 116.017 61.7955 112.035 63.8857 107.755C63.7989 107.457 63.842 107.496 64.1114 107.474C64.4546 107.052 64.5283 106.651 64.602 106.25Z" fill="var(--fill-0, #077D57)"/>
<path id="Vector_14" d="M78.67 142.5C78.2901 144.037 77.6621 145.681 76.7639 147.272C76.2169 147.388 75.94 147.556 75.6631 147.725C75.6631 147.725 75.6649 147.645 75.4734 147.689C75.1427 148.031 75.0035 148.327 74.8644 148.624C74.8644 148.624 74.8478 148.556 74.8762 148.542C70.954 150.269 67.0033 152.01 63.0527 153.75C62.8473 153.226 62.6419 152.702 62.4365 152.178C69.4231 152.269 73.8605 147.315 78.67 142.5Z" fill="var(--fill-0, #077D57)"/>
<path id="Vector_15" d="M102.396 222.217C104.323 218.943 106.211 215.645 108.216 212.416C108.567 211.85 109.41 211.57 109.888 211.25C109.329 214.762 108.779 218.223 108.144 222.213C108.001 219.841 107.886 217.926 107.77 216.011C107.51 215.892 107.25 215.772 106.99 215.653C105.854 217.935 104.719 220.216 103.17 222.5C102.636 222.407 102.516 222.312 102.396 222.217Z" fill="var(--fill-0, #077D57)"/>
<path id="Vector_16" d="M106.478 177.5C106.865 177.593 107.039 177.824 107.391 178.175C104.475 182.357 101.383 186.418 98.655 190C98.4764 184.853 102.794 181.499 106.478 177.5Z" fill="var(--fill-0, #077D57)"/>
<path id="Vector_17" d="M162.335 107.004C162.838 106.186 163.536 105.563 164.548 105C165.415 105.733 165.857 106.593 166.545 107.046C168.854 108.568 171.251 109.946 173.573 111.761C173.397 112.263 173.261 112.381 173.126 112.5C169.594 110.734 166.062 108.967 162.335 107.004Z" fill="var(--fill-0, #077D57)"/>
<path id="Vector_18" d="M41.3926 142.5C41.8544 142.579 42.0574 142.777 42.4569 143.081C39.5817 146.708 36.5102 150.229 33.4386 153.75C33.1147 153.567 32.7909 153.384 32.467 153.201C35.3559 149.674 38.2448 146.147 41.3926 142.5Z" fill="var(--fill-0, #077D57)"/>
<path id="Vector_19" d="M145.34 142.851C145.521 142.492 145.685 142.493 146.095 142.503C146.139 147.091 145.937 151.67 145.735 156.25C145.441 156.239 145.147 156.227 144.853 156.216C145.009 151.881 145.166 147.546 145.34 142.851Z" fill="var(--fill-0, #077D57)"/>
<path id="Vector_20" d="M159.837 129.132C159.89 128.841 160.036 128.802 160.409 128.75C161.654 130.37 162.56 132.068 163.719 133.618C164.794 135.057 166.139 136.338 167.33 138.058C167.182 138.535 167.071 138.643 166.959 138.75C164.617 135.628 162.274 132.506 159.837 129.132Z" fill="var(--fill-0, #077D57)"/>
<path id="Vector_21" d="M155.208 114.9C154.833 114.521 154.838 114.24 154.844 113.75C159.008 113.753 163.169 113.966 167.33 114.179C167.297 114.453 167.265 114.726 167.232 115C163.351 115 159.47 115 155.208 114.9Z" fill="var(--fill-0, #077D57)"/>
<path id="Vector_22" d="M174.087 111.25C176.028 113.473 177.75 115.871 179.817 118.75C177.548 116.373 175.621 114.354 173.573 112.07C173.591 111.678 173.73 111.551 174.087 111.25Z" fill="var(--fill-0, #077D57)"/>
<path id="Vector_23" d="M109.627 161.25C109.878 161.429 109.892 161.713 109.888 162.21C107.688 163.702 105.506 164.982 102.982 166.25C102.64 166.239 102.396 165.957 102.396 165.957C104.727 164.423 107.058 162.889 109.627 161.25Z" fill="var(--fill-0, #077D57)"/>
<path id="Vector_24" d="M111.473 202.862C111.737 202.528 111.971 202.515 112.381 202.5C112.413 205.004 112.269 207.502 112.126 210C111.796 209.972 111.466 209.944 111.137 209.916C111.239 207.674 111.342 205.433 111.473 202.862Z" fill="var(--fill-0, #077D57)"/>
<path id="Vector_25" d="M138.609 142.5C137.278 140.672 136.071 138.666 134.863 136.659C135.299 136.523 135.735 136.386 136.171 136.25C137.025 138.274 137.878 140.297 138.609 142.5Z" fill="var(--fill-0, #077D57)"/>
<path id="Vector_26" d="M141.273 170.902C141.069 170.545 141.083 170.388 141.155 170C142.842 171.26 144.472 172.751 146.101 174.242C145.773 174.495 145.444 174.747 145.115 175C143.907 173.701 142.699 172.402 141.273 170.902Z" fill="var(--fill-0, #077D57)"/>
<path id="Vector_27" d="M167.753 138.75C168.997 140.152 170.037 141.73 171.076 143.309C170.747 143.456 170.418 143.603 170.088 143.75C169.231 142.424 168.374 141.099 167.34 139.537C167.292 139.177 167.42 139.052 167.753 138.75Z" fill="var(--fill-0, #077D57)"/>
<path id="Vector_28" d="M142.587 183.75C143.406 184.69 144.129 185.767 144.853 186.844C144.655 187.062 144.458 187.281 144.26 187.5C143.652 186.587 143.043 185.673 142.369 184.46C142.303 184.161 142.492 183.887 142.587 183.75Z" fill="var(--fill-0, #077D57)"/>
<path id="Vector_29" d="M220.253 146.25C220.915 146.401 221.421 146.678 221.794 147.059C222.144 147.417 222.354 147.885 222.245 148.75C221.472 148.243 220.699 147.736 219.777 147.003C219.766 146.659 219.903 146.54 220.253 146.25Z" fill="var(--fill-0, #077D57)"/>
<path id="Vector_30" d="M114.883 143.75V143.75V143.75Z" fill="var(--fill-0, #077D57)"/>
<path id="Vector_31" d="M61.1878 166.477C61.8157 166.199 62.1261 166.238 62.4365 166.278C62.3583 166.685 62.2801 167.093 62.2019 167.5C61.758 167.265 61.3142 167.03 61.1878 166.477Z" fill="var(--fill-0, #077D57)"/>
<path id="Vector_32" d="M96.1545 162.5C96.2454 162.13 96.3363 161.761 96.6756 161.283C96.9239 161.174 97.2467 161.362 97.4009 161.463C97.2278 161.826 96.9005 162.087 96.3451 162.409C96.1169 162.469 96.1545 162.5 96.1545 162.5Z" fill="var(--fill-0, #077D57)"/>
<path id="Vector_33" d="M104.893 207.346C105.279 206.977 105.666 206.607 106.513 206.25C106.974 206.263 107.391 206.562 107.391 206.562C106.932 206.883 106.474 207.203 105.568 207.5C105.119 207.476 104.893 207.346 104.893 207.346Z" fill="var(--fill-0, #077D57)"/>
<path id="Vector_34" d="M147.759 127.5C148.159 127.845 148.379 128.298 148.599 128.75C148.253 128.575 147.906 128.4 147.394 128.026C147.227 127.828 147.579 127.607 147.759 127.5Z" fill="var(--fill-0, #077D57)"/>
<path id="Vector_35" d="M101.147 166.342C101.147 166.672 101.147 167.002 101.147 167.402C101.147 167.471 101.147 167.5 101.147 167.5C101.147 167.099 101.147 166.698 101.147 166.258C101.147 166.219 101.147 166.342 101.147 166.342Z" fill="var(--fill-0, #077D57)"/>
<path id="Vector_36" d="M171.076 145V145V145Z" fill="var(--fill-0, #077D57)"/>
<path id="Vector_37" d="M209.641 156.246C209.32 156.023 208.999 155.8 208.566 155.421C208.454 155.265 208.705 155.087 208.832 155C209.292 155.265 209.626 155.617 209.787 156.127C209.615 156.283 209.641 156.246 209.641 156.246Z" fill="var(--fill-0, #077D57)"/>
<path id="Vector_38" d="M14.9848 121.25V121.25V121.25Z" fill="var(--fill-0, #077D57)"/>
<path id="Vector_39" d="M53.6954 121.25V121.25Z" fill="var(--fill-0, #077D57)"/>
<path id="Vector_40" d="M102.396 165.418C102.291 165.793 102.042 165.998 101.559 166.244C101.324 166.285 101.209 166.113 101.147 166.03C101.219 165.666 101.353 165.384 101.713 165.015C101.939 164.927 102.252 165.247 102.396 165.418Z" fill="var(--fill-0, #077D57)"/>
<path id="Vector_41" d="M101.123 167.518C100.692 167.902 100.295 168.326 99.8984 168.75C100.004 168.287 100.109 167.825 100.721 167.5C101.227 167.638 101.158 167.558 101.123 167.518Z" fill="var(--fill-0, #077D57)"/>
<path id="Vector_42" d="M56.1929 121.196C55.4828 121.457 55.2135 120.729 54.9442 120C55.5073 120.069 56.0706 120.137 56.1929 121.196Z" fill="var(--fill-0, #077D57)"/>
<path id="Vector_43" d="M17.4822 120.339C17.1398 120.735 16.6867 120.993 16.2335 121.25C16.2925 120.873 16.3515 120.497 16.7801 120.021C17.1498 119.922 17.3714 120.2 17.4822 120.339Z" fill="var(--fill-0, #077D57)"/>
<path id="Vector_44" d="M96.1522 162.5V162.5V162.5V162.5Z" fill="var(--fill-0, #077D57)"/>
<path id="Vector_45" d="M168.575 115.111C168.616 115.839 168.286 116.292 168.021 116.247C167.757 116.201 167.558 115.654 167.33 115.326C167.631 115.091 167.932 114.855 168.575 115.111Z" fill="var(--fill-0, #077D57)"/>
<path id="Vector_46" d="M54.9442 150V150V150Z" fill="var(--fill-0, #077D57)"/>
<path id="Vector_47" d="M146.101 177.5V177.5V177.5Z" fill="var(--fill-0, #077D57)"/>
<path id="Vector_48" d="M53.6954 151.25V151.25V151.25Z" fill="var(--fill-0, #077D57)"/>
<path id="Vector_49" d="M106.142 207.5C105.818 207.5 105.355 207.5 104.893 207.5C104.924 207.5 104.955 207.5 105.359 207.5C105.733 207.5 106.004 207.5 106.142 207.5Z" fill="var(--fill-0, #077D57)"/>
<path id="Vector_50" d="M106.142 205.842C106.141 205.471 106.322 205.282 106.699 205.003C106.983 204.983 107.102 205.076 107.39 205.32C107.4 205.709 107.24 205.948 106.849 206.243C106.618 206.299 106.294 206 106.142 205.842Z" fill="var(--fill-0, #077D57)"/>
<path id="Vector_51" d="M146.101 175.002C146.062 175.873 145.457 176.062 144.853 176.25C145.081 175.606 145.309 174.963 146.101 175.002Z" fill="var(--fill-0, #077D57)"/>
<path id="Vector_52" d="M32.467 155C33.1815 155 33.4486 155 33.7157 155C33.1503 155 32.5849 155 32.467 155Z" fill="var(--fill-0, #077D57)"/>
<path id="Vector_53" d="M209.787 156.816C210.09 156.667 210.409 156.38 210.745 156.251C210.806 156.227 210.937 156.849 211.035 157.172C210.76 157.438 210.485 157.704 210.034 157.271C209.858 156.573 209.808 156.732 209.787 156.816Z" fill="var(--fill-0, #077D57)"/>
<path id="Vector_54" d="M212.284 157.5V157.5V157.5Z" fill="var(--fill-0, #077D57)"/>
<path id="Vector_55" d="M112.537 130C112.14 129.576 112.54 129.047 113.559 128.75C113.892 128.747 113.049 129.661 112.537 130Z" fill="var(--fill-0, #077D57)"/>
<path id="Vector_56" d="M149.848 130V130V130V130Z" fill="var(--fill-0, #077D57)"/>
<path id="Vector_57" d="M149.848 130.225C149.848 130.316 149.848 131.25 149.848 131.25C149.848 131.25 149.848 130.457 149.848 130.139C149.848 129.821 149.848 130.134 149.848 130.225Z" fill="var(--fill-0, #077D57)"/>
<path id="Vector_58" d="M64.6765 106.25C65.1716 106.537 64.9649 106.993 63.9504 107.5C63.4199 107.174 63.6974 106.796 64.6765 106.25Z" fill="var(--fill-0, #077D57)"/>
<path id="Vector_59" d="M133.614 105C133.614 104.723 133.614 104.121 133.614 103.75C133.614 104.213 133.614 104.444 133.614 105Z" fill="var(--fill-0, #077D57)"/>
<path id="Vector_60" d="M149.863 113.75C149.755 113.75 150.214 113.75 151.09 113.75C151.149 113.75 150.789 113.75 149.863 113.75Z" fill="var(--fill-0, #077D57)"/>
<path id="Vector_61" d="M76.1725 147.5C76.2378 147.5 76.7667 147.5 77.4212 147.5C77.2433 147.5 76.9396 147.5 76.1725 147.5Z" fill="var(--fill-0, #077D57)"/>
<path id="Vector_62" d="M76.1725 148.75C76.1725 148.22 76.1725 147.885 76.1725 147.5C76.1725 147.948 76.1725 148.446 76.1725 148.75Z" fill="var(--fill-0, #077D57)"/>
</g>
</svg>
