<svg preserveAspectRatio="none" width="100%" height="100%" overflow="visible" style="display: block;" viewBox="0 0 302.349 305.644" fill="none" xmlns="http://www.w3.org/2000/svg">
<g id="Group 6">
<path id="Vector" d="M187.278 120.792C191.435 116.614 195.231 112.568 199.267 108.786C214.487 94.5267 237.593 92.3348 253.254 105.922C270.278 120.692 285.607 137.468 302.349 154.036C299.142 157.019 296.382 159.418 293.809 162.009C282.219 173.676 270.832 185.553 259.093 197.063C241.717 214.1 216.645 214.512 199.252 197.667C184.443 183.324 170.262 168.314 155.345 153.133C165.923 142.42 176.475 131.733 187.278 120.792Z" fill="var(--fill-0, #077D57)"/>
<path id="Vector_2" d="M55.9208 100.191C74.2146 93.4172 90.0818 96.871 103.656 110.407C117.802 124.514 131.766 138.808 146.042 153.255C144.892 154.552 143.962 155.701 142.931 156.747C130.196 169.668 117.483 182.613 104.691 195.476C86.0402 214.233 60.5625 214.337 41.8639 195.648C28.2016 181.994 14.7069 168.167 1.14443 154.41C0.795393 154.056 0.525575 153.622 0 152.942C0.794293 151.979 1.54445 150.916 2.44339 150.003C15.5257 136.716 28.4742 123.288 41.8185 110.276C45.8294 106.365 50.9557 103.629 55.9208 100.191Z" fill="var(--fill-0, #077D57)"/>
<path id="Vector_3" d="M131.68 176.083C137.919 169.749 143.907 163.668 149.718 157.767C164.738 172.803 179.989 187.026 194.024 202.39C210.66 220.602 210.127 244.577 193.248 262.637C179.827 276.996 165.715 290.691 151.897 304.668C151.569 305 151.085 305.176 150.311 305.644C143.149 298.38 135.959 291.127 128.813 283.83C121.176 276.03 113.133 268.578 106.058 260.283C90.0936 241.567 91.0646 217.816 108.086 200.031C115.753 192.021 123.641 184.228 131.68 176.083Z" fill="var(--fill-0, #077D57)"/>
<path id="Vector_4" d="M135.843 14.8907C140.621 9.91384 145.149 5.19071 150.125 6.12736e-05C166.223 16.7851 182.437 32.6491 197.41 49.6364C209.255 63.0742 209.219 87.0488 197.42 100.397C182.648 117.107 166.691 132.741 150.757 149.348C146.132 144.567 141.97 140.238 137.779 135.937C127.112 124.989 115.834 114.579 105.892 102.992C89.8754 84.3235 91.2047 60.5073 108.344 42.7816C117.338 33.4806 126.504 24.3512 135.843 14.8907Z" fill="var(--fill-0, #077D57)"/>
</g>
</svg>
