<svg preserveAspectRatio="none" width="100%" height="100%" overflow="visible" style="display: block;" viewBox="0 0 193.647 246" fill="none" xmlns="http://www.w3.org/2000/svg">
<g id="4" style="mix-blend-mode:multiply">
<path id="Vector" d="M147.001 89.5483C151.238 86.9003 155.474 84.2522 160.071 81.6197C160.52 81.7378 160.611 81.8404 160.701 81.943C157.99 85.977 154.491 88.8372 149.991 90.9845C145.385 93.1826 141.235 96.4049 137.069 99.4317C133.868 101.757 132.299 104.992 131.677 109.092C131.234 112.007 129.556 115.007 127.683 117.38C122.705 123.686 117.609 129.949 112.027 135.714C105.721 142.226 104.828 150.083 104.957 158.405C104.997 161.006 106.422 161.808 108.757 160.801C111.005 159.832 113.246 158.822 115.392 157.651C120.293 154.976 125.014 151.949 130.022 149.501C142.171 143.562 152.161 135.179 159.906 124.107C160.21 123.673 160.444 123.19 161.048 123.056C156.715 136.227 145.901 143.401 134.65 151.104C144.006 155.755 153.442 157.899 163.134 159.654C158.101 162.385 152.135 162.501 145.724 159.935C142.066 158.471 138.485 156.814 134.848 155.293C132.008 154.105 129.443 154.408 126.785 156.218C123.08 158.74 118.943 160.633 115.279 163.206C109.393 167.34 106.245 172.485 106.925 180.445C108.397 197.699 109.772 214.909 113.932 231.787C116.835 243.565 116.724 243.583 128.76 244.157C134.07 244.411 139.379 244.681 144.685 245.011C145.731 245.076 146.759 245.451 147.755 246C115.154 246 82.5531 246 49.952 246C49.9347 245.721 49.9174 245.441 49.9001 245.162C62.0502 244.627 74.2002 244.092 85.9694 243.574C98.1274 224.611 99.3268 203.694 96.7452 182.21C96.4244 179.541 95.2566 176.501 93.469 174.57C88.5094 169.213 83.3449 163.939 77.6516 159.395C70.0515 153.33 61.0353 152.739 51.6155 154.089C46.404 154.836 41.025 154.864 35.758 154.568C33.3491 154.433 31.0282 152.732 28.8633 151.17C39.2175 153.793 49.3159 153.712 60.6732 150.358C54.8521 145.929 49.8694 142.137 44.8867 138.345C45.1294 137.971 45.3722 137.597 45.6151 137.223C47.8404 138.568 50.1381 139.809 52.2773 141.28C57.8708 145.127 63.3824 148.812 70.0527 150.995C75.7667 152.866 80.8387 156.697 86.1942 159.663C87.4991 160.385 88.7262 161.354 90.1204 161.789C94.4935 163.153 97.0494 161.577 97.5203 157.04C98.6389 146.264 98.1985 135.777 91.091 126.7C89.8373 125.099 88.8797 123.266 87.7853 121.54C83.8185 115.285 77.6959 112.623 70.4206 114.187C67.3665 114.844 64.3845 115.837 61.3725 116.687C54.5106 118.624 48.0685 117.406 41.8231 113.94C53.661 118.646 64.1102 111.514 76.1138 110.783C63.3565 102.549 51.396 94.8295 39.4356 87.11C39.7187 86.6091 40.002 86.1082 40.2851 85.6073C42.3776 86.8857 44.4692 88.1656 46.5629 89.442C48.7501 90.7755 50.9394 92.1056 54.1091 94.0344C51.3228 86.8453 48.9291 80.6692 46.5353 74.4931C46.7631 74.3761 46.9908 74.2592 47.2185 74.1422C48.0276 75.3128 48.8366 76.4835 49.8832 77.7081C50.1206 77.7622 50.1056 77.7006 50.0661 77.9802C50.3435 78.6505 50.6603 79.0412 50.9561 79.4321C50.9348 79.4324 50.8983 79.4106 50.8983 79.4106C53.2652 88.5357 56.5898 96.6127 66.5101 100.541C72.3371 102.848 77.4263 106.993 82.9236 110.179C84.1095 110.866 85.6232 110.988 86.9859 111.371C87.2999 110.108 87.9338 108.829 87.8709 107.586C87.6408 103.038 87.1784 98.5026 86.4465 93.813C86.0895 93.6635 86.0942 93.4896 86.0942 93.4896C86.4045 92.4682 86.9409 91.4577 86.991 90.4236C87.6261 77.3045 81.0158 67.4462 72.7981 57.921C73.952 58.5902 75.1059 59.2594 76.6719 60.2451C77.2852 60.5452 77.4864 60.5288 77.6876 60.5123C77.5825 60.1855 77.4774 59.8587 77.3722 59.5319C75.487 54.391 73.6018 49.2501 71.7167 44.1092C72.0198 43.9946 72.3229 43.88 72.6259 43.7654C78.1398 54.5955 83.6536 65.4256 89.5179 76.9438C93.3135 70.4275 94.1995 64.2709 93.9612 57.9922C93.76 52.6961 93.2011 47.3832 92.3607 42.1484C90.9221 33.187 93.5206 24.9525 96.6968 16.7443C96.1892 20.5158 95.1421 24.3067 95.2762 28.0554C95.6648 38.9101 96.6796 49.7417 97.1234 60.5957C97.2799 64.4223 97.2261 68.54 96.0003 72.0865C92.6501 81.7798 90.7312 91.4696 92.4563 101.739C92.9484 104.668 92.975 107.742 92.741 110.713C92.2176 117.358 94.9404 122.64 99.2251 127.308C102.957 131.374 105.1 131.032 106.401 125.748C108.381 117.699 109.59 109.46 111.552 101.406C113.57 93.1168 115.401 84.6683 118.594 76.81C122.071 68.2527 121.227 60.0804 119.388 51.6119C119.004 49.8413 118.937 48.0017 118.724 46.194C119.083 46.1338 119.442 46.0736 119.801 46.0134C121.5 52.9471 123.352 59.8494 124.786 66.8374C125.126 68.4958 124.282 70.5258 123.607 72.2366C122.286 75.5842 120.7 78.8273 119.932 82.5433C123.232 80.3422 126.531 78.1411 129.831 75.94C130.045 76.2044 130.259 76.4689 130.473 76.7333C129.055 78.0151 127.827 79.6625 126.186 80.5161C118.751 84.3841 115.7 90.6989 115.12 98.7356C114.469 107.758 113.548 116.761 113.375 126.002C120.747 120.935 126.558 114.732 129.142 106.365C130.763 101.114 134.153 97.8076 137.618 93.8988C142.359 88.5499 145.49 81.7479 149.123 75.4602C150.031 73.8896 150.22 71.9036 150.865 69.672C152.208 74.1159 149.95 82.4171 145.883 88.5299C145.582 89.2775 145.552 89.6029 145.521 89.9284C146.015 89.8018 146.508 89.6751 147.001 89.5483Z" fill="var(--fill-0, #077D57)"/>
<path id="Vector_2" d="M32.7586 97.6922C35.0233 102.944 37.1376 107.93 39.4582 113.404C33.8202 115.644 28.5361 118.058 23.0451 119.831C18.2862 121.368 13.2247 118.712 10.9575 113.847C8.78455 109.183 6.94109 104.366 4.68613 98.9794C10.3659 96.7616 15.7508 94.1947 21.4091 92.5955C25.9875 91.3015 29.9146 93.3922 32.7586 97.6922Z" fill="var(--fill-0, #077D57)"/>
<path id="Vector_3" d="M61.0788 138.832C60.6757 137.036 60.2948 135.585 60.077 134.111C59.327 129.033 61.7509 124.802 66.6548 123.358C71.0476 122.064 75.5799 121.244 80.589 120.092C81.6514 125.418 82.9865 130.387 83.5433 135.442C84.0009 139.596 81 143.222 76.6763 144.417C72.3818 145.604 67.9855 146.422 63.1494 147.51C62.4568 144.581 61.8164 141.873 61.0788 138.832Z" fill="var(--fill-0, #077D57)"/>
<path id="Vector_4" d="M168.375 57.4593C163.161 61.0148 158.119 64.307 152.386 68.0501C149.859 62.3949 147.427 57.7391 145.701 52.8347C144.352 49.0013 146.351 44.9406 150.156 42.8491C154.178 40.6386 158.385 38.7662 162.83 36.5901C164.964 41.131 167.338 45.2912 168.834 49.7463C169.573 51.9491 168.693 54.6955 168.375 57.4593Z" fill="var(--fill-0, #077D57)"/>
<path id="Vector_5" d="M165.823 115.774C166.919 112.948 167.782 110.372 168.861 107.89C170.989 102.99 175.429 100.765 180.48 102.343C184.832 103.702 189.047 105.498 193.647 107.223C191.779 112.018 190.263 116.493 188.306 120.765C186.498 124.712 182.131 126.823 178.146 125.631C173.516 124.247 169.033 122.368 164.246 120.616C164.807 118.845 165.247 117.456 165.823 115.774Z" fill="var(--fill-0, #077D57)"/>
<path id="Vector_6" d="M59.4233 53.5075C49.1217 55.234 45.7886 52.8855 44.2387 43.1359C43.7283 39.9255 43.217 36.7152 42.6044 32.8651C47.8544 32.2089 52.8927 31.2738 57.9635 31.0391C62.2448 30.8409 65.6243 33.9507 66.499 38.3453C67.3713 42.7272 67.9261 47.1723 68.6989 52.0916C65.5703 52.5623 62.6759 52.9978 59.4233 53.5075Z" fill="var(--fill-0, #077D57)"/>
<path id="Vector_7" d="M19.1519 79.4192C4.81005 80.88 3.3756 79.7466 1.49528 65.639C1.21063 63.5029 1.09387 61.3444 0.831788 58.4488C6.30823 58.0874 11.5414 57.2583 16.709 57.5585C20.6367 57.7867 23.3044 60.7462 23.9445 64.7899C24.6423 69.1968 24.9917 73.6588 25.5483 78.5856C23.4245 78.8714 21.4721 79.1342 19.1519 79.4192Z" fill="var(--fill-0, #077D57)"/>
<path id="Vector_8" d="M66.0076 28.9251C65.2891 24.6635 66.9108 21.7556 70.1325 19.6011C72.6191 17.9381 75.1081 16.2786 77.6019 14.6266C78.0508 14.3292 78.5285 14.0754 79.5192 13.491C81.9932 17.3684 84.8275 21.0284 86.785 25.109C88.564 28.8176 87.1715 32.3614 83.8317 34.8079C80.7665 37.0533 77.5398 39.0783 73.7083 41.655C71.1223 37.4284 68.6147 33.3297 66.0076 28.9251Z" fill="var(--fill-0, #077D57)"/>
<path id="Vector_9" d="M23.1573 140.718C24.2439 143.389 25.2357 145.765 26.4648 148.711C22.1542 150.414 18.0397 152.486 13.6817 153.626C9.93922 154.606 6.65621 152.851 4.91583 149.252C3.15556 145.613 1.71911 141.817 0 137.756C4.13408 136.072 7.93566 134.27 11.902 132.972C16.6797 131.409 20.2361 133.942 23.1573 140.718Z" fill="var(--fill-0, #077D57)"/>
<path id="Vector_10" d="M143.452 117.768C149.643 120.473 150.795 123.11 148.631 129.119C147.758 131.543 146.833 133.948 145.94 136.34C129.933 132.587 129.178 129.286 136.013 115.101C138.362 115.948 140.758 116.812 143.452 117.768Z" fill="var(--fill-0, #077D57)"/>
<path id="Vector_11" d="M180.621 146.934C183.548 148.411 186.207 149.734 188.824 151.037C184.172 165.631 178.928 167.392 166.843 158.657C170.652 147.478 173.503 144.972 180.621 146.934Z" fill="var(--fill-0, #077D57)"/>
<path id="Vector_12" d="M108.571 16.8635C105.484 16.0853 102.722 15.4085 99.9919 14.7397C101.699 -1.60578 105.474 -2.13681 119.095 2.56753C118.247 13.7703 115.818 17.198 108.571 16.8635Z" fill="var(--fill-0, #077D57)"/>
<path id="Vector_13" d="M176.457 62.209C179.502 62.9489 182.232 63.6418 184.915 64.3231C182.946 79.5268 180.116 81.2849 165.804 76.5066C166.767 65.0763 169.171 61.018 176.457 62.209Z" fill="var(--fill-0, #077D57)"/>
<path id="Vector_14" d="M144.941 59.9806C147.259 67.5615 145.928 70.0953 138.629 72.442C136.576 73.1021 134.508 73.7149 132.085 74.4607C130.982 70.972 129.68 67.6797 128.936 64.2659C128.214 60.9578 129.759 58.2725 132.839 56.9597C135.931 55.6418 139.223 54.7906 142.72 53.6381C143.517 55.8871 144.184 57.77 144.941 59.9806Z" fill="var(--fill-0, #077D57)"/>
<path id="Vector_15" d="M101.004 72.3983C101.982 68.064 103.027 64.0484 104.062 60.0674C120.293 63.4578 120.573 67.336 113.95 80.621C109.522 78.1849 103.377 78.7924 101.004 72.3983Z" fill="var(--fill-0, #077D57)"/>
<path id="Vector_16" d="M122.243 35.5525C123.842 31.7571 126.553 30.4791 130.213 31.0099C132.878 31.3965 135.538 31.8267 138.159 32.2312C138.628 47.6406 134.537 49.4759 120.516 45.3319C121.058 42.2032 121.607 39.0321 122.243 35.5525Z" fill="var(--fill-0, #077D57)"/>
<path id="Vector_17" d="M86.0724 93.18C86.0942 93.4901 86.0895 93.664 86.0904 93.7509C83.0576 95.2238 80.1301 96.9843 76.9586 97.8855C74.0577 98.7097 71.6644 97.0778 70.3586 94.3442C69.14 91.7934 68.1296 89.143 66.7907 85.9764C69.9783 84.7191 72.8916 83.3332 75.9476 82.4304C79.0956 81.5003 81.5561 82.9214 82.9999 85.7826C84.1566 88.0745 85.0439 90.5024 86.0724 93.18Z" fill="var(--fill-0, #077D57)"/>
<path id="Vector_18" d="M127.213 148.383C126.818 148.238 126.685 148.204 126.562 148.147C115.379 142.968 114.768 140.923 121.468 129.722C125.134 131.913 130.517 131.972 131.86 137.025C133.043 141.472 130.439 145.223 127.213 148.383Z" fill="var(--fill-0, #077D57)"/>
<path id="Vector_19" d="M50.1402 77.7874C53.2548 75.2535 56.0382 72.0596 59.5446 70.3401C62.2711 69.0032 64.6519 71.4632 69.4712 78.5984C67.4291 80.2907 65.4334 82.1207 63.2585 83.7046C60.2269 85.9123 57.4085 85.3744 54.917 82.6418C53.7346 81.3448 52.4905 80.1038 51.0863 79.1243C50.8983 79.4111 50.9348 79.4328 51.2397 79.2261C51.065 78.58 50.5853 78.1405 50.1056 77.701C50.1056 77.701 50.1206 77.7626 50.1402 77.7874Z" fill="var(--fill-0, #077D57)"/>
<path id="Vector_20" d="M151.671 109.867C147.365 111.395 144.852 109.763 143.365 106.059C142.567 104.073 141.792 102.077 141.024 100.13C150.975 93.7811 154.074 95.0231 158.17 107.167C156.131 108.017 154.053 108.883 151.671 109.867Z" fill="var(--fill-0, #077D57)"/>
<path id="Vector_21" d="M34.4656 168.589C31.3608 169.466 28.5146 170.167 25.7222 170.854C21.9227 160.436 23.3245 158.299 35.2669 156.382C35.6801 160.45 38.4835 164.43 34.4656 168.589Z" fill="var(--fill-0, #077D57)"/>
<path id="Vector_22" d="M168.748 82.637C174.897 83.3517 174.174 88.7715 176.416 92.0874C166.965 98.2216 163.337 96.6992 160.609 85.4756C163.177 84.544 165.8 83.5923 168.748 82.637Z" fill="var(--fill-0, #077D57)"/>
<path id="Vector_23" d="M111.053 24.2326C111.926 24.9062 113.141 25.7545 113.078 25.8642C111.543 28.5196 110.262 31.5303 108.062 33.5038C106.962 34.4909 104.014 33.9654 102.131 33.3833C100.149 32.7706 98.4395 31.2738 96.6505 30.1873C101.557 20.1703 103.098 19.5333 111.053 24.2326Z" fill="var(--fill-0, #077D57)"/>
<path id="Vector_24" d="M167.789 125.378C175.476 128.351 176.083 131.039 171.288 139.67C160.392 136.904 159.259 134.415 164.498 124.381C165.472 124.671 166.483 124.972 167.789 125.378Z" fill="var(--fill-0, #077D57)"/>
<path id="Vector_25" d="M37.1549 140.074C32.176 142.099 30.946 141.393 26.1289 134.048C32.7547 126.129 36.928 126.64 42.1365 136.287C40.5894 137.472 38.9962 138.692 37.1549 140.074Z" fill="var(--fill-0, #077D57)"/>
<path id="Vector_26" d="M37.9176 52.2654C38.4859 52.3633 38.7548 52.4275 38.9914 52.5526C47.1548 56.8713 47.6197 59.3081 41.6979 66.701C32.3269 62.7962 31.6399 60.3734 37.9176 52.2654Z" fill="var(--fill-0, #077D57)"/>
<path id="Vector_27" d="M52.2761 102.856C54.1848 107.368 53.3597 108.941 47.2168 113.095C39.8938 106.512 39.9719 104.67 48.1783 98.2951C49.4578 99.7074 50.7748 101.161 52.2761 102.856Z" fill="var(--fill-0, #077D57)"/>
<path id="Vector_28" d="M44.0909 134.645C43.293 133.693 42.693 132.961 42.1423 132.194C39.5059 128.52 39.7392 126.98 43.3876 124.093C44.3353 123.343 45.3348 122.659 47.12 121.352C48.4313 124.299 50.8489 127.187 50.4421 129.598C50.0986 131.635 46.4802 133.12 44.0909 134.645Z" fill="var(--fill-0, #077D57)"/>
<path id="Vector_29" d="M136.991 79.6818C142.836 85.4584 142.781 86.32 135.535 92.848C133.955 90.206 131.25 87.666 131.362 85.2573C131.455 83.2551 134.861 81.4072 136.991 79.6818Z" fill="var(--fill-0, #077D57)"/>
<path id="Vector_30" d="M71.4888 69.6819C67.4265 72.3441 65.0531 69.179 62.2094 67.7295C65.1571 59.5028 67.4539 58.8027 74.9045 64.0435C73.856 65.8209 72.7786 67.6472 71.4888 69.6819Z" fill="var(--fill-0, #077D57)"/>
<path id="Vector_31" d="M89.4377 50.4748C89.9002 55.9887 89.3799 56.4505 81.6465 57.7421C77.8136 50.383 79.6768 47.2639 88.4534 46.787C88.7555 47.8716 89.0745 49.0166 89.4377 50.4748Z" fill="var(--fill-0, #077D57)"/>
<path id="Vector_32" d="M126.882 102.194C123.844 105.783 122.297 105.757 116.598 102.315C118.855 93.8519 120.743 93.0576 128.704 97.4906C128.151 98.9312 127.581 100.418 126.882 102.194Z" fill="var(--fill-0, #077D57)"/>
<path id="Vector_33" d="M103.331 104.888C98.3941 104.575 98.6761 100.508 97.2354 97.7412C104.171 92.8696 106.798 93.8542 109.371 102.548C107.514 103.299 105.589 104.079 103.331 104.888Z" fill="var(--fill-0, #077D57)"/>
<path id="Vector_34" d="M115.913 43.0917C116.433 44.5288 116.823 45.6814 117.207 46.813C110.467 51.2785 107.677 50.0957 105.82 42.061C111.291 38.5024 113.288 38.652 115.913 43.0917Z" fill="var(--fill-0, #077D57)"/>
<path id="Vector_35" d="M55.9979 161.003C56.0385 155.999 56.4582 155.667 63.0914 155.017C65.7617 161.597 64.7284 163.225 56.9861 164.301C56.6827 163.339 56.3671 162.339 55.9979 161.003Z" fill="var(--fill-0, #077D57)"/>
<path id="Vector_36" d="M156.331 149.001C158.557 148.097 160.549 147.447 162.465 146.822C165.585 153.752 163.99 156.133 156.097 156.173C156.097 153.882 156.097 151.569 156.331 149.001Z" fill="var(--fill-0, #077D57)"/>
<path id="Vector_37" d="M161.69 165.112C166.132 167.962 163.018 170.865 162.54 173.766C155.074 172.569 154.186 170.835 157.461 163.565C158.743 164.026 160.071 164.503 161.69 165.112Z" fill="var(--fill-0, #077D57)"/>
<path id="Vector_38" d="M33.8551 74.5661C36.0629 71.7523 37.5093 73.2601 38.7313 75.0814C41.3141 78.9306 37.9871 80.2335 35.4617 82.3223C34.1258 79.7892 30.3526 78.2732 33.8551 74.5661Z" fill="var(--fill-0, #077D57)"/>
<path id="Vector_39" d="M160.308 81.4708C160.485 81.4657 160.783 81.6256 160.891 81.8645C160.611 81.841 160.52 81.7384 160.308 81.4708Z" fill="var(--fill-0, #077D57)"/>
<path id="Vector_40" d="M146.749 89.3187C146.508 89.6758 146.015 89.8026 145.521 89.9292C145.552 89.6037 145.582 89.2783 145.792 88.8028C146.146 88.798 146.322 88.9431 146.749 89.3187Z" fill="var(--fill-0, #077D57)"/>
<path id="Vector_41" d="M50.0662 77.9803C50.5853 78.1402 51.0651 78.5797 51.261 79.2256C50.6604 79.0413 50.3435 78.6506 50.0662 77.9803Z" fill="var(--fill-0, #077D57)"/>
<path id="Vector_42" d="M77.2054 59.7083C77.4775 59.8594 77.5826 60.1862 77.6877 60.513C77.4865 60.5295 77.2852 60.546 76.8995 60.4037C76.8227 60.1247 76.9306 60.0044 77.2054 59.7083Z" fill="var(--fill-0, #077D57)"/>
</g>
</svg>
