<svg preserveAspectRatio="none" width="100%" height="100%" overflow="visible" style="display: block;" viewBox="0 0 32 32" fill="none" xmlns="http://www.w3.org/2000/svg">
<g id="handshake">
<rect width="32" height="32" rx="4" fill="var(--fill-0, #077D57)" fill-opacity="0.05"/>
<path id="Vector" d="M14.9999 20.9399L17.0001 22.9399C17.1971 23.1369 17.4309 23.2931 17.6883 23.3997C17.9457 23.5063 18.2216 23.5612 18.5002 23.5612C18.7788 23.5612 19.0547 23.5063 19.3121 23.3997C19.5694 23.2931 19.8033 23.1369 20.0003 22.9399C20.1973 22.7429 20.3536 22.509 20.4602 22.2517C20.5668 21.9943 20.6217 21.7184 20.6217 21.4399C20.6217 21.1613 20.5668 20.8854 20.4602 20.6281C20.3536 20.3707 20.1973 20.1368 20.0003 19.9399M18.0004 17.9394L20.5006 20.4394C20.8984 20.8372 21.4381 21.0607 22.0007 21.0607C22.5634 21.0607 23.103 20.8372 23.5008 20.4394C23.8987 20.0416 24.1222 19.502 24.1222 18.9394C24.1222 18.3768 23.8987 17.8372 23.5008 17.4394L19.6205 13.5593C19.058 12.9975 18.2954 12.682 17.5003 12.682C16.7053 12.682 15.9427 12.9975 15.3802 13.5593L14.5001 14.4393C14.1023 14.8372 13.5626 15.0607 13 15.0607C12.4373 15.0607 11.8977 14.8372 11.4999 14.4393C11.102 14.0415 10.8785 13.502 10.8785 12.9393C10.8785 12.3767 11.102 11.8372 11.4999 11.4393L14.3101 8.62931C15.2224 7.71945 16.4122 7.13986 17.691 6.98228C18.9699 6.8247 20.2647 7.09814 21.3707 7.75931L21.8407 8.03931C22.2665 8.2963 22.7728 8.38543 23.2608 8.28931L25.0009 7.93931M25.0007 6.93978L26.0008 17.9398H24.0006M6.99928 6.93978L5.9992 17.9398L12.4997 24.4399C12.8976 24.8377 13.4372 25.0612 13.9998 25.0612C14.5625 25.0612 15.1021 24.8377 15.5 24.4399C15.8978 24.042 16.1213 23.5025 16.1213 22.9399C16.1213 22.3773 15.8978 21.8377 15.5 21.4399M6.99928 7.93978H14.9999" stroke="var(--stroke-0, #077D57)" stroke-linecap="round"/>
</g>
</svg>
