<svg preserveAspectRatio="none" width="100%" height="100%" overflow="visible" style="display: block;" viewBox="0 0 188.765 191.433" fill="none" xmlns="http://www.w3.org/2000/svg">
<path id="Vector" d="M167.936 145.045C145.816 174.707 116.766 190.425 80.4021 191.163C53.8829 191.701 27.3444 191.268 0.0335674 191.268C0.0335674 189.502 0.0335675 187.894 0.0336285 186.286C0.0342405 161.932 -0.0548223 137.578 0.0544731 113.224C0.278262 63.3683 28.4898 22.4866 74.9712 6.3048C85.8074 2.53247 97.7513 0.864855 109.26 0.474584C134.602 -0.384929 159.992 0.185086 185.363 0.187687C186.329 0.187749 187.294 0.354301 188.487 0.464302C188.599 1.68795 188.768 2.65895 188.765 3.62933C188.687 30.8564 188.899 58.089 188.404 85.3085C188.005 107.208 180.585 126.926 167.936 145.045Z" fill="var(--fill-0, #077D57)"/>
</svg>
