<svg preserveAspectRatio="none" width="100%" height="100%" overflow="visible" style="display: block;" viewBox="0 0 307.355 212.626" fill="none" xmlns="http://www.w3.org/2000/svg">
<g id="Group 4">
<path id="Vector" d="M194.722 191.188C183.008 179.366 171.544 167.799 159.866 156.015C160.61 155.083 161.137 154.287 161.793 153.621C175.352 139.862 188.827 126.016 202.519 112.396C220.775 94.2353 246.513 94.2425 264.693 112.392C278.718 126.393 292.55 140.593 306.461 154.712C306.69 154.945 306.829 155.269 307.355 156.088C304.392 159.02 301.301 162.023 298.27 165.086C287.047 176.43 275.919 187.87 264.617 199.132C246.608 217.075 220.895 217.107 202.768 199.323C200.131 196.736 197.569 194.07 194.722 191.188Z" fill="var(--fill-0, #077D57)"/>
<path id="Vector_2" d="M53.5123 207.577C50.3402 205.339 47.1332 203.661 44.6916 201.202C29.7856 186.191 15.0534 171.003 4.12818e-05 155.605C0.772932 154.72 1.66514 153.585 2.67061 152.565C15.6375 139.404 28.5856 126.225 41.6077 113.121C60.5961 94.0124 86.2369 93.9813 105.219 113.068C119.186 127.112 133.054 141.257 148.186 156.594C146.127 158.068 144.015 159.179 142.4 160.798C129.945 173.281 117.618 185.895 105.19 198.405C90.4503 213.241 72.7803 216.429 53.5123 207.577Z" fill="var(--fill-0, #077D57)"/>
<path id="Vector_3" d="M128.115 123.709C122.204 117.72 116.447 112.079 110.901 106.232C93.3219 87.6939 92.7018 62.6278 110.065 43.9895C124.02 29.0099 138.787 14.8068 153.45 0C154.404 0.846073 155.401 1.63219 156.288 2.5293C169.272 15.6611 182.288 28.7609 195.203 41.9619C214.431 61.6152 214.441 87.5617 195.218 107.193C181.71 120.989 168.092 134.673 154.516 148.4C154.286 148.634 153.974 148.784 153.292 149.255C145.026 140.868 136.696 132.416 128.115 123.709Z" fill="var(--fill-0, #077D57)"/>
</g>
</svg>
