<svg preserveAspectRatio="none" width="100%" height="100%" overflow="visible" style="display: block;" viewBox="0 0 187.651 246" fill="none" xmlns="http://www.w3.org/2000/svg">
<g id="3">
<path id="Vector" d="M106.499 103.357C111.301 98.9133 116.103 94.4694 120.905 90.0255C121.334 90.3028 121.762 90.5801 122.19 90.8575C121.522 92.3536 121.269 94.4131 120.121 95.2591C108.029 104.172 103.579 116.623 104.076 130.94C104.642 147.216 105.908 163.47 107.026 179.723C107.308 183.831 110.474 186.028 115.402 186.06C128.334 186.145 141.267 186.21 154.199 186.255C162.181 186.282 170.163 186.26 178.145 186.26C178.148 186.654 178.151 187.049 178.153 187.444C126.842 187.444 75.5313 187.444 24.2205 187.444C24.2193 187.223 24.2181 187.002 24.217 186.78C44.6995 186.543 65.1831 186.377 85.6637 186.026C92.1908 185.914 95.5784 182.281 95.6006 175.779C95.6559 159.49 96.0873 143.182 95.4789 126.916C94.9275 112.174 88.3413 100.077 76.462 91.0571C75.7072 90.4839 75.0637 89.7638 74.3685 89.1121C74.687 88.7097 75.0056 88.3073 75.3242 87.905C81.7672 93.0929 88.2102 98.2808 94.7043 103.51C97.6431 98.9759 97.7617 87.4336 95.2692 84.0524C94.7173 83.3036 93.4953 82.9902 92.5282 82.6149C79.1048 77.4062 68.5315 68.4331 59.4043 57.5551C59.1158 57.2114 59.1029 56.6366 59.5631 55.6135C64.6783 60.0766 69.528 64.9018 74.9834 68.9008C80.438 72.899 86.4983 76.0709 92.2931 79.605C92.6995 79.2157 93.1059 78.8264 93.5124 78.4371C92.7687 75.9893 91.924 73.5653 91.3412 71.0799C91.1584 70.3007 91.6806 69.3561 91.8801 68.4872C92.6715 68.9507 93.9503 69.2466 94.1766 69.9045C95.8339 74.7248 97.2781 79.6183 98.7943 84.4874C99.7345 87.5069 100.683 90.5238 101.693 93.7491C105.283 92.289 104.493 90.0497 104.03 87.8201C100.814 72.3261 99.732 56.6742 100.471 40.8936C100.895 40.7278 101.32 40.5621 101.744 40.3964C102.218 41.4637 103.033 42.5061 103.113 43.6023C103.889 54.2 104.435 64.8155 105.301 75.4051C105.537 78.2786 106.633 81.0816 108.306 83.9568C110.42 78.8122 112.534 73.6676 114.751 68.2729C115.751 68.6132 116.688 68.9321 117.784 69.3049C117.058 71.4232 116.416 73.2962 115.518 75.9144C126.353 73.3237 134.897 67.8774 142.562 60.7745C142.849 60.9622 143.135 61.1499 143.421 61.3376C142.955 62.2452 142.705 63.4024 141.989 64.0221C134.509 70.4999 126.436 75.9609 116.855 78.9972C115.26 79.5027 113.487 81.1555 112.86 82.7077C110.295 89.0602 108.141 95.579 105.635 102.49C105.433 103.297 105.431 103.651 105.429 104.005C105.786 103.789 106.143 103.573 106.499 103.357Z" fill="var(--fill-0, #077D57)"/>
<path id="Vector_2" d="M96.2035 50.7582C94.6934 56.2549 93.2467 61.4063 91.6204 67.1975C85.2299 65.2687 78.9511 63.8084 73.0298 61.4504C68.1838 59.5206 66.0407 54.1509 67.2857 48.5119C68.4676 43.1589 70.1209 37.9099 71.7942 31.7828C78.366 33.8527 84.9248 35.3201 90.9434 38.0008C95.8913 40.2047 97.0623 45.1581 96.2035 50.7582Z" fill="var(--fill-0, #077D57)"/>
<path id="Vector_3" d="M101.089 4.19561C102.768 2.83263 104.222 1.64434 106.234 0C110.192 5.08295 114.465 9.87289 117.9 15.2031C120.653 19.4756 119.187 25.0171 115.067 28.6662C111.053 32.2217 106.821 35.5321 102.263 39.2991C98.356 34.3765 94.2581 29.7877 90.8437 24.737C87.9032 20.3872 88.9605 14.9217 92.8889 11.153C95.4027 8.74136 98.1961 6.62116 101.089 4.19561Z" fill="var(--fill-0, #077D57)"/>
<path id="Vector_4" d="M144.575 74.5997C149.641 77.6636 154.403 80.6458 159.541 83.8643C156.35 88.6444 153.53 93.3333 150.237 97.6618C147.351 101.454 142.157 102.303 137.828 100.239C136.865 99.7801 135.967 99.1751 135.072 98.5875C131.5 96.2432 127.941 93.8793 123.996 91.2699C127.197 86.5142 129.991 81.7979 133.36 77.5358C136.063 74.1159 139.974 73.147 144.575 74.5997Z" fill="var(--fill-0, #077D57)"/>
<path id="Vector_5" d="M52.6132 30.0948C60.0195 32.0326 62.5078 35.8754 61.1931 42.8675C60.4812 46.6534 59.7781 50.441 59.0118 54.5453C54.0749 53.6201 49.4386 52.9511 44.9092 51.845C40.5978 50.7921 37.7666 46.9821 38.1797 42.5339C38.6228 37.7627 39.6713 33.0477 40.5141 27.955C44.7011 28.7022 48.4934 29.3789 52.6132 30.0948Z" fill="var(--fill-0, #077D57)"/>
<path id="Vector_6" d="M110.851 47.2512C113.01 44.9932 114.836 42.5862 117.247 41.1869C120.58 39.253 124.353 38.0783 128.628 36.2892C130.554 41.3169 132.83 46.1424 134.205 51.2122C135.238 55.0202 133.415 58.5351 129.867 60.3782C125.617 62.5859 121.094 64.2687 116.167 66.4056C114.388 59.7845 109.246 54.7203 110.851 47.2512Z" fill="var(--fill-0, #077D57)"/>
<path id="Vector_7" d="M47.601 76.5763C47.1917 74.5703 46.8581 72.8888 46.4603 70.8835C51.1974 69.9195 55.5977 68.7982 60.0674 68.1733C65.3381 67.4364 69.2555 70.1426 70.5929 75.3082C71.694 79.5601 72.436 83.9049 73.4495 88.7456C68.2711 89.7367 63.4973 90.944 58.6489 91.4897C54.4199 91.9656 50.7405 89.2254 49.4802 85.1355C48.6556 82.4595 48.263 79.6503 47.601 76.5763Z" fill="var(--fill-0, #077D57)"/>
<path id="Vector_8" d="M152.383 59.4002C149.762 59.5138 147.5 59.614 144.285 59.7565C144.285 55.4245 144.103 51.4258 144.333 47.451C144.594 42.9484 147.613 40.0748 152.149 39.7252C155.877 39.4378 159.618 39.3242 163.305 39.136C165.467 52.9434 164.79 59.9175 152.383 59.4002Z" fill="var(--fill-0, #077D57)"/>
<path id="Vector_9" d="M13.0116 210.438C10.0084 208.656 7.19426 207.041 4.70048 205.03C2.97622 203.638 1.69416 201.699 0 199.759C3.05294 197.13 5.7594 194.559 8.71688 192.318C11.8727 189.928 15.7291 190.258 18.5655 193.118C21.0904 195.664 23.3467 198.477 26.492 202.047C21.8881 204.982 17.6127 207.709 13.0116 210.438Z" fill="var(--fill-0, #077D57)"/>
<path id="Vector_10" d="M50.0173 221.516C53.1393 216.751 55.4602 215.979 60.2859 217.972C62.7526 218.99 65.1783 220.108 67.6013 221.172C63.0711 236.35 60.0262 236.944 46.5843 229.736C47.6688 227.124 48.7767 224.456 50.0173 221.516Z" fill="var(--fill-0, #077D57)"/>
<path id="Vector_11" d="M178.961 226.95C173.637 227.67 171.781 226.699 169.759 222.295C168.646 219.87 167.633 217.399 166.583 214.969C180.322 206.531 183.296 209.115 187.651 223.23C184.88 224.413 182.069 225.614 178.961 226.95Z" fill="var(--fill-0, #077D57)"/>
<path id="Vector_12" d="M121.5 116.87C117.837 114.936 117.314 111.891 117.547 108.498C117.702 106.245 117.827 103.99 117.963 101.778C134.206 100.268 134.33 103.749 133.151 117.765C129.393 117.517 125.595 117.266 121.5 116.87Z" fill="var(--fill-0, #077D57)"/>
<path id="Vector_13" d="M118.354 230.31C121.171 232.694 121.588 235.411 120.509 238.485C119.628 240.998 118.745 243.509 117.869 246C102.344 243.248 102.07 239.561 108.15 226.373C111.447 227.613 114.781 228.867 118.354 230.31Z" fill="var(--fill-0, #077D57)"/>
<path id="Vector_14" d="M68.4636 97.0784C72.0115 97.0408 75.2034 97.0408 78.3235 97.0408C79.498 112.813 77.0334 114.179 62.8275 112.286C60.99 104.137 62.7584 99.0562 68.4636 97.0784Z" fill="var(--fill-0, #077D57)"/>
<path id="Vector_15" d="M47.5998 196.418C40.7516 198.05 33.9035 199.682 25.838 201.604C27.5651 200.14 28.4639 198.841 29.6589 198.452C37.4228 195.93 45.2511 193.605 53.1808 191.178C54.6975 194.072 54.0665 196.431 51.9467 198.795C46.7647 204.575 41.7285 210.486 35.898 217.189C36.3999 215.143 36.3762 213.52 37.1329 212.447C40.6929 207.402 44.4673 202.508 48.4155 197.121C48.3105 196.594 47.9551 196.506 47.5998 196.418Z" fill="var(--fill-0, #077D57)"/>
<path id="Vector_16" d="M111.863 205.245C110.751 204.102 109.844 203.176 108.007 201.299C108.347 207.058 108.613 211.652 108.891 216.245C109.013 218.26 109.357 220.286 109.222 222.281C109.142 223.459 108.322 224.588 107.625 226.233C106.443 217.636 105.193 209.951 104.44 202.217C104.211 199.87 105.354 197.388 105.991 194.395C114.407 201.414 124.48 215.422 123.621 217.902C119.84 213.831 115.954 209.647 111.863 205.245Z" fill="var(--fill-0, #077D57)"/>
<path id="Vector_17" d="M33.7752 215.441C33.1997 218.957 33.2602 223.146 31.2277 225.606C27.9124 229.618 23.6447 225.619 19.11 225.436C20.0095 222.178 20.2195 219.04 21.7294 216.765C22.7744 215.19 25.5493 214.309 27.6687 214.039C29.5177 213.803 31.531 214.854 33.7752 215.441Z" fill="var(--fill-0, #077D57)"/>
<path id="Vector_18" d="M137.214 228.621C128.887 230.807 127.228 229.437 125.553 219.003C128.026 218.323 130.516 217.359 133.092 217C136.506 216.524 138.418 219.126 139.85 224.993C140.408 227.275 139.672 228.238 137.214 228.621Z" fill="var(--fill-0, #077D57)"/>
<path id="Vector_19" d="M127.693 208.979C125.131 208.55 122.918 208.151 120.78 207.766C120.627 196.955 123.477 194.926 134.087 197.957C134.59 205.067 132.935 208.095 127.693 208.979Z" fill="var(--fill-0, #077D57)"/>
<path id="Vector_20" d="M169.255 196.628C171.575 197.678 173.608 198.656 175.576 199.603C173.427 209.907 169.625 211.31 160.397 205.466C162.5 198.037 164.074 196.401 169.255 196.628Z" fill="var(--fill-0, #077D57)"/>
<path id="Vector_21" d="M83.4569 220.828C88.7376 224.686 88.6243 226.744 82.9826 234.364C72.8711 229.841 72.0625 226.656 79.1244 218.297C80.4538 219.08 81.8237 219.886 83.4569 220.828Z" fill="var(--fill-0, #077D57)"/>
<path id="Vector_22" d="M73.0324 209.314C73.5321 210.422 73.9152 211.263 74.2872 212.079C65.2085 218.321 62.7706 217.528 58.597 207.099C66.3756 201.332 69.2868 201.728 73.0324 209.314Z" fill="var(--fill-0, #077D57)"/>
<path id="Vector_23" d="M147.155 219.29C149.576 216.25 151.999 213.53 154.509 210.712C162.361 219.396 161.583 222.738 151.046 227.681C149.756 225.004 148.456 222.307 147.155 219.29Z" fill="var(--fill-0, #077D57)"/>
<path id="Vector_24" d="M88.7081 202.098C84.564 209.383 80.3237 216.2 72.5506 219.76C71.5014 220.241 70.3736 220.549 68.9691 220.436C76.6305 215.405 81.4363 208.094 86.3041 200.801C86.7727 200.099 88.2935 200.1 89.3259 199.774C89.1749 200.471 89.024 201.168 88.7081 202.098Z" fill="var(--fill-0, #077D57)"/>
<path id="Vector_25" d="M163.641 211.656C164.452 212.238 165.032 212.666 165.839 213.261C159.526 214.37 149.049 204.003 145.522 192.201C146.718 193.248 148.034 194.187 149.09 195.359C153.903 200.704 158.643 206.114 163.641 211.656Z" fill="var(--fill-0, #077D57)"/>
<path id="Vector_26" d="M106.312 103.174C106.142 103.574 105.786 103.79 105.429 104.006C105.431 103.652 105.432 103.297 105.59 102.788C105.872 102.752 105.999 102.872 106.312 103.174Z" fill="var(--fill-0, #077D57)"/>
<path id="Vector_27" d="M47.8006 196.586C47.9551 196.506 48.3105 196.594 48.5438 196.874C48.2815 196.961 48.1414 196.857 47.8006 196.586Z" fill="var(--fill-0, #077D57)"/>
</g>
</svg>
