<svg preserveAspectRatio="none" width="100%" height="100%" overflow="visible" style="display: block;" viewBox="0 0 236 229.289" fill="none" xmlns="http://www.w3.org/2000/svg">
<g id="2" style="mix-blend-mode:multiply">
<path id="Vector" d="M58.3364 100.211C56.4364 100.901 54.561 101.67 52.6315 102.263C47.744 103.765 42.8344 105.195 37.9269 106.631C37.4393 106.774 36.7988 106.59 36.4088 106.84C29.5196 111.254 21.6278 111.491 13.649 112.567C13.4146 112.787 13.4119 112.758 13.4119 112.758C15.6836 111.94 17.9028 110.889 20.2396 110.361C23.6104 109.599 27.0665 109.218 30.4165 107.907C20.1599 106.526 10.6717 100.947 0 103.801C5.76336 101.277 12.4297 101.26 18.2643 103.026C28.5352 106.134 38.6694 105.242 48.6279 101.604C49.3795 101.33 49.8237 100.209 50.1635 99.2337C49.9454 98.7495 49.9398 98.5137 49.8994 98.2788C52.8467 97.813 55.971 97.8205 58.7075 96.7908C66.2722 93.9443 74.0675 94.0326 81.9532 93.6989C89.8762 93.3637 97.8259 92.2457 105.616 90.7155C110.274 89.8007 114.45 87.1935 116.585 81.7342C80.693 81.7342 45.1691 81.7342 9.64522 81.7342C9.64129 81.5109 9.63736 81.2875 9.63344 81.0641C17.5749 80.7632 25.5145 80.2782 33.4582 80.1949C59.9282 79.9173 86.3996 79.7842 112.87 79.5947C117.341 79.5627 118.452 78.716 116.649 74.6588C114.056 68.8236 110.28 63.5244 107.137 57.9239C106.105 56.0841 105.472 54.019 104.369 51.7845C104.082 51.512 104.153 51.1765 104.153 51.1765C107.308 54.6729 110.46 58.1728 113.622 61.6636C114.454 62.5822 115.316 63.473 116.815 64.0977C115.718 57.918 114.703 51.7213 113.428 45.5788C113.256 44.7507 111.747 44.2308 110.909 43.5079C107.137 40.2545 103.341 37.0264 99.6609 33.6704C98.9625 33.0334 98.7517 31.8583 98.1257 30.5267C102.916 34.5742 107.225 38.2149 111.534 41.8557C111.855 41.5729 112.176 41.29 112.497 41.0072C112.497 39.4172 112.497 37.8272 112.497 36.2373C112.797 36.0013 113.097 35.7653 113.398 35.5293C114.075 36.3742 115.159 37.1339 115.355 38.0791C116.085 41.6022 116.524 45.1862 117.245 49.8709C123.695 41.1415 124.851 31.3468 127.86 22.3695C128.384 22.5307 128.907 22.6919 129.431 22.8531C129.134 24.7754 129.116 26.7943 128.493 28.6032C125.679 36.7675 122.664 44.8617 119.8 53.0088C119.321 54.371 119.228 55.8697 119.478 57.5092C123.996 55.4799 124.412 49.5596 129.379 48.2722C126.397 54.0516 122.464 59.3032 121.845 67.3677C126.467 65.0782 130.243 63.2072 134.02 61.3363C134.34 61.6262 134.66 61.9161 134.979 62.206C128.925 66.8661 120.454 69.5915 120.078 79.3635C156.905 79.7725 193.612 80.1801 230.32 80.5877C230.316 80.9091 230.313 81.2305 230.309 81.5519C193.681 81.5519 157.054 81.5519 119.929 81.5519C120.808 86.649 124.051 89.6959 128.14 90.6433C135.871 92.4349 143.831 94.2362 151.693 94.2239C163.465 94.2055 174.7 94.8103 185.459 100.476C195.932 105.992 207.336 106.142 218.787 103.842C225.054 102.584 231.254 102.563 236 103.987C225.561 105.107 213.829 106.365 202.097 107.623C201.873 107.925 201.649 108.226 201.424 108.527C202.585 109.504 203.746 110.481 205.199 111.679C205.514 112.132 205.533 112.363 205.551 112.595C202.979 113.189 201.566 111.833 200.153 109.852C199.24 108.572 197.686 107.521 196.197 106.931C192.145 105.327 187.714 104.519 183.903 102.502C174.273 97.4045 164.03 97.5805 153.041 98.0135C151.732 98.3038 151.057 98.5903 150.382 98.8768C144.488 97.7801 138.594 96.6833 132.674 95.5819C135.061 101.285 141.915 105.577 147.955 105.783C151.052 105.889 154.117 106.952 157.403 107.765C157.61 107.949 157.619 107.913 157.619 107.913C151.815 107.24 146.011 106.567 139.73 105.839C141.256 108.749 142.324 111.862 144.311 114.185C145.579 115.667 148.559 117.126 150.166 116.628C159.675 113.68 168.106 116.493 176.622 120.285C180.698 122.101 185.126 123.12 189.998 124.695C188.625 125.074 187.855 125.286 186.919 125.544C189.845 128.459 192.829 130.502 197.081 130.745C201.543 131 204.727 133.959 207.417 137.471C203.459 135.5 199.501 133.529 194.797 131.187C194.797 135.611 194.797 138.666 194.797 141.722C194.627 141.755 194.458 141.787 194.288 141.82C194.111 141.402 193.742 140.963 193.786 140.57C194.751 131.953 188.321 128.794 182.449 125.488C177.966 122.965 173.109 121.117 168.482 118.839C162.38 115.835 156.582 117.23 150.688 120.198C150.559 120.587 150.346 120.869 150.346 120.869C150.14 120.715 149.946 120.444 149.728 120.424C142.366 119.719 139.617 114.031 136.526 108.484C133.747 103.497 129.464 99.9203 124.005 96.7019C125.799 101.953 127.266 106.544 128.988 111.036C129.331 111.932 130.606 112.51 131.519 113.135C133.031 114.169 134.598 115.122 136.141 116.109C135.976 116.395 135.812 116.681 135.647 116.967C134.224 116.153 132.8 115.339 130.898 114.405C130.299 114.663 130.178 115.041 130.058 115.42C130.727 120.845 133.354 124.865 137.781 128.216C141.854 131.299 145.305 135.225 148.938 138.872C153.305 143.256 157.56 147.76 163.923 149.51C162.26 149.18 160.598 148.85 158.566 148.346C158.11 148.417 158.022 148.662 157.934 148.908C158.563 150.621 159.192 152.335 159.78 154.486C159.544 155.1 159.348 155.278 159.152 155.455C153.655 145.366 145.953 137.178 136.894 129.623C136.41 129.658 136.263 129.942 136.115 130.226C136.187 133.41 136.337 136.595 136.306 139.778C136.283 142.18 136.028 144.58 135.348 147.002C135.348 144.27 134.901 141.445 135.445 138.827C136.458 133.941 134.527 130.014 132.42 125.968C130.596 122.466 128.827 118.918 127.326 115.269C125.464 110.74 123.984 106.053 122.166 101.503C121.566 100.001 120.427 98.7156 119.535 97.3311C119.09 97.3597 118.644 97.3884 118.199 97.4171C117.914 102.674 116.539 108.177 117.65 113.118C118.764 118.073 122.358 122.466 124.627 126.664C122.624 124.83 119.967 122.397 117.309 119.964C116.958 120.064 116.607 120.164 116.256 120.264C117.687 125.5 119.073 130.749 120.563 135.967C121.622 139.676 122.354 143.581 124.07 146.972C126.451 151.677 129.617 155.982 132.621 160.636C132.794 160.813 132.795 160.782 132.795 160.782C132.176 161.394 131.026 162.008 131.028 162.618C131.038 165.442 131.367 168.265 131.58 171.078C131.123 170.726 130.589 170.315 129.945 169.819C129.764 170.644 129.615 171.322 129.465 172.001C131.043 164.606 129.531 158.099 124.513 152.687C121.86 159.154 119.076 165.464 116.756 171.942C116.196 173.507 116.763 175.828 117.547 177.441C118.533 179.469 120.276 181.128 121.791 183.361C121.89 183.776 121.91 184.134 121.91 184.134C121.645 184.272 121.379 184.41 120.819 184.774C120.241 185.001 119.957 185.003 119.673 185.005C118.366 182.31 117.059 179.616 115.362 176.119C111.872 182.174 111.431 187.592 113.141 192.94C114.925 198.52 117.452 203.86 119.613 209.588C119.573 209.87 119.588 209.852 119.371 209.946C119.3 210.26 119.445 210.48 119.584 210.694C119.578 210.688 119.568 210.683 119.568 210.683C119.279 216.404 118.989 222.126 118.507 228.291C118.002 228.919 117.689 229.104 117.377 229.289C117.253 227.338 117.129 225.387 116.75 223.291C116.495 223.146 116.523 223.194 116.523 223.194C119.035 217.131 117.362 211.374 115.398 205.569C113.065 198.676 110.94 191.711 108.652 184.548C104.965 184.862 103.964 185.971 104.161 190.3C104.249 192.225 104.141 194.159 103.84 196.367C103.559 196.646 103.175 196.668 103.175 196.668C102.761 194.525 102.485 192.343 101.891 190.251C101.39 188.489 103.433 183.721 105.856 183.044C110.053 181.872 111.544 178.881 112.821 175.185C114.754 169.589 117.343 164.216 119.184 158.593C121.006 153.028 121.269 147.287 119.198 141.624C108.731 144.137 104.822 148.931 103.831 158.893C103.525 161.976 101.513 164.889 100.283 167.879C99.9841 167.733 99.6856 167.587 99.3872 167.441C100.598 162.776 101.81 158.111 103.139 152.932C102.902 152.105 102.547 151.793 102.191 151.481C105.816 145.359 110.926 141.142 117.212 139.796C115.255 129.993 113.385 120.624 111.655 111.952C111.5 112.498 111.036 114.144 110.571 115.79C110.275 115.706 109.979 115.622 109.682 115.539C111.166 110.266 112.65 104.994 114.134 99.7211C113.742 99.5863 113.35 99.4515 112.958 99.3167C109.333 103.245 107.936 108.207 107.263 113.4C106.723 117.57 106.537 121.787 105.927 125.851C105.599 125.455 105.538 125.193 105.477 124.93C105.477 123.782 105.477 122.635 105.477 122.074C101.951 122.862 98.3964 123.621 94.8592 124.454C84.6814 126.853 76.3957 131.962 71.2216 141.37C70.6979 142.323 70.7418 143.589 70.3162 145.02C69.837 145.341 69.5639 145.352 69.2909 145.364C63.4277 147.59 59.3533 151.895 55.9897 157.067C57.7301 152.466 60.0739 148.722 64.5255 146.005C67.3116 144.305 68.8408 140.514 70.8976 137.636C71.8625 136.285 72.4651 134.518 73.705 133.548C81.0756 127.782 88.8084 122.761 98.5281 121.874C101.325 121.619 103.082 119.795 103.429 116.731C103.891 112.662 104.574 108.618 105.204 104.271C99.8567 105.436 95.3913 107.475 92.2604 112.043C89.7129 115.76 86.3902 118.495 82.5034 118.825C85.1628 116.401 88.1744 113.465 91.3917 110.777C94.4981 108.182 97.5117 105.111 101.127 103.594C104.819 102.044 107.652 100.367 109.127 96.0594C109.023 95.468 108.679 95.305 108.335 95.1419C101.676 97.4254 95.0123 99.695 88.3619 102.003C86.9443 102.495 85.5754 103.129 83.7891 103.927C83.1027 104.158 82.8112 104.159 82.5198 104.16C77.3403 103.416 73.5792 105.872 70.3787 109.583C63.7426 117.278 57.1097 124.975 50.0321 133.185C50.1553 131.522 50.2512 130.226 50.4107 128.073C44.2992 131.216 38.6273 134.133 33.3082 136.869C35.7442 134.192 38.059 131.122 42.4586 129.481C53.3626 125.416 61.6049 117.644 68.6991 108.075C67.4623 107.758 66.6168 107.542 65.0706 107.146C73.4811 103.827 81.189 100.786 89.6982 97.4282C79.7373 98.1898 70.0711 94.3723 61.125 100.649C60.5538 100.068 60.2496 99.5759 59.707 99.2164C59.0817 99.6592 58.6947 99.9694 58.3345 100.271C58.3614 100.262 58.3364 100.211 58.3364 100.211ZM91.6102 97.8233C91.6397 97.6893 91.6963 97.5523 91.6823 97.4231C91.678 97.3836 91.4641 97.3171 91.3729 97.3466C91.1034 97.4335 90.8472 97.5621 90.5858 97.6744C90.7954 97.745 91.0049 97.8157 91.6102 97.8233ZM131.35 95.2411C131.528 95.2549 131.706 95.2687 131.884 95.2825C131.802 95.1915 131.719 95.1006 131.35 95.2411ZM113.739 98.0893C113.651 98.1712 113.499 98.2486 113.493 98.3363C113.487 98.4241 113.627 98.5221 113.702 98.6156C113.791 98.5337 113.879 98.4518 113.739 98.0893Z" fill="var(--fill-0, #077D57)"/>
<path id="Vector_2" d="M117.999 27.6545C116.195 30.0782 114.569 32.2748 112.794 34.6731C109.552 32.3612 106.463 30.3571 103.609 28.0715C100.327 25.443 99.7861 21.4612 101.995 17.9065C102.753 16.6865 103.668 15.5591 104.527 14.4002C105.77 12.722 107.028 11.0537 108.603 8.94793C112.011 11.4246 115.475 13.5668 118.468 16.2186C121.784 19.1559 121.496 22.6015 117.999 27.6545Z" fill="var(--fill-0, #077D57)"/>
<path id="Vector_3" d="M104.018 50.8822C104.027 51.183 103.956 51.5287 103.945 51.705C100.909 53.0686 97.9229 54.3793 94.8485 55.4134C90.5905 56.8455 87.1135 55.236 85.3199 50.9769C84.0381 47.9335 83.0469 44.7615 81.6493 40.878C85.7815 39.5205 89.6956 37.825 93.7769 37.0241C97.0224 36.3872 99.5096 38.4883 100.787 41.6017C101.991 44.5387 102.945 47.5838 104.018 50.8822Z" fill="var(--fill-0, #077D57)"/>
<path id="Vector_4" d="M156.087 58.0571C155.198 59.9822 154.562 61.7054 153.688 63.2847C151.724 66.834 148.701 67.9597 145.062 66.4649C142.621 65.4622 140.258 64.2481 137.876 63.0946C137.44 62.8835 137.076 62.5092 136.455 62.0418C137.855 58.9282 139.068 55.7812 140.642 52.8455C142.448 49.4761 145.551 48.403 149.004 49.8272C151.891 51.0178 154.673 52.4854 157.706 53.9272C157.135 55.4233 156.683 56.6066 156.087 58.0571Z" fill="var(--fill-0, #077D57)"/>
<path id="Vector_5" d="M87.186 11.1848C89.9485 11.8952 92.4238 12.4844 94.8378 13.2648C98.3657 14.4053 100.045 16.9656 99.4149 20.6145C98.8806 23.7099 97.8804 26.7241 96.9758 30.199C92.1405 28.0445 85.3103 29.5259 84.0288 23.3682C83.2563 19.6565 85.8115 15.2457 87.186 11.1848Z" fill="var(--fill-0, #077D57)"/>
<path id="Vector_6" d="M131.637 18.8659C130.449 19.7759 129.475 20.5246 128.53 21.2512C119.117 11.2031 119.597 7.22495 130.95 0C138.887 8.78878 140.376 12.6668 131.637 18.8659Z" fill="var(--fill-0, #077D57)"/>
<path id="Vector_7" d="M145.342 41.6533C144.169 45.3642 141.659 46.846 138.214 46.9409C135.661 47.0113 133.104 46.9548 130.559 46.9548C128.269 33.0368 130.088 30.5448 145.403 31.498C145.403 34.7319 145.403 38.0255 145.342 41.6533Z" fill="var(--fill-0, #077D57)"/>
<path id="Vector_8" d="M104.698 125.27C104.943 125.345 105.003 125.603 105.137 126.25C105.12 128.144 105.027 129.65 104.904 131.634C104.463 130.782 104.196 130.267 103.815 129.53C100.107 134.604 95.4583 138.88 94.2717 145.476C93.9865 147.061 92.4893 148.422 91.2161 149.877C90.7875 149.756 90.6923 149.645 90.5972 149.533C93.798 140.654 98.8859 132.894 104.698 125.27Z" fill="var(--fill-0, #077D57)"/>
<path id="Vector_9" d="M149.877 99.4222C150.367 98.9674 151.051 98.7018 152.015 98.4266C153.637 99.0669 155.079 99.5901 156.306 100.39C160.171 102.909 163.956 105.532 167.773 108.115C167.416 108.614 167.059 109.113 166.702 109.611C162.294 104.497 156.71 101.227 149.877 99.4222Z" fill="var(--fill-0, #077D57)"/>
<path id="Vector_10" d="M59.5373 99.545C59.8239 100.011 60.1104 100.478 60.3981 101.157C58.756 103.738 57.178 106.156 55.4448 108.455C54.4067 109.832 53.1257 111.022 51.4502 111.848C53.7134 108.273 55.9765 104.697 58.1309 100.868C58.0222 100.614 58.0458 100.662 58.2898 100.743C58.8683 100.397 59.2028 99.9712 59.5373 99.545Z" fill="var(--fill-0, #077D57)"/>
<path id="Vector_11" d="M69.3584 145.754C69.6242 145.422 69.8777 145.411 70.3213 145.403C71.4875 150.988 72.8372 156.611 69.346 161.062C69.346 156.464 69.346 151.269 69.3584 145.754Z" fill="var(--fill-0, #077D57)"/>
<path id="Vector_12" d="M81.5913 104.261C82.0083 104.02 82.2845 104.019 82.7678 104.019C81.9763 109.034 78.9256 112.017 74.9384 114.086C77.1214 110.873 79.2859 107.687 81.5913 104.261Z" fill="var(--fill-0, #077D57)"/>
<path id="Vector_13" d="M97.3081 170.042C95.0802 173.373 92.8524 176.704 90.5975 180.076C90.567 176.1 92.5603 172.889 95.9754 170.012C96.8215 170.002 97.0647 170.022 97.3081 170.042Z" fill="var(--fill-0, #077D57)"/>
<path id="Vector_14" d="M150.174 120.796C152.394 124.065 154.474 127.436 156.588 130.862C151.984 129.48 151.908 124.912 149.891 121.43C149.821 121.173 150.032 120.898 150.174 120.796Z" fill="var(--fill-0, #077D57)"/>
<path id="Vector_15" d="M158.825 155.369C158.931 154.915 159.126 154.724 159.427 154.351C162.267 156.532 165 158.895 167.769 161.607C167.803 161.955 167.597 162.18 167.597 162.18C164.703 159.997 161.808 157.814 158.825 155.369Z" fill="var(--fill-0, #077D57)"/>
<path id="Vector_16" d="M48.8814 98.4266C49.2348 98.7263 49.2405 98.9632 49.191 99.3781C45.5212 100.297 41.871 101.04 38.2208 101.782C38.1567 101.564 38.0925 101.346 38.0284 101.128C41.542 100.207 45.0555 99.2847 48.8814 98.4266Z" fill="var(--fill-0, #077D57)"/>
<path id="Vector_17" d="M101.617 150.995C102.207 151.276 102.55 151.636 102.9 152.209C100.237 153.806 97.5662 155.189 94.5401 156.587C94.1849 156.602 93.9526 156.414 93.9526 156.414C96.4254 154.634 98.8982 152.854 101.617 150.995Z" fill="var(--fill-0, #077D57)"/>
<path id="Vector_18" d="M119.678 184.902C119.984 184.558 120.274 184.556 120.783 184.55C121.305 187.106 121.61 189.667 121.915 192.228C121.658 192.278 121.4 192.329 121.143 192.379C120.65 190.001 120.156 187.623 119.678 184.902Z" fill="var(--fill-0, #077D57)"/>
<path id="Vector_19" d="M128.339 130.611C128.514 131.137 128.57 131.454 128.626 131.771C128.462 131.841 128.298 131.911 128.135 131.981C127.18 130.629 126.225 129.276 125.27 127.923C125.568 127.785 125.866 127.646 126.165 127.507C126.85 128.472 127.535 129.437 128.339 130.611Z" fill="var(--fill-0, #077D57)"/>
<path id="Vector_20" d="M158.574 133.835C158.213 132.768 157.959 131.96 157.706 131.152C157.924 131.055 158.142 130.959 158.359 130.862C158.887 132.235 159.415 133.607 159.943 134.979C159.774 135.098 159.605 135.217 159.436 135.336C159.184 134.923 158.933 134.509 158.574 133.835Z" fill="var(--fill-0, #077D57)"/>
<path id="Vector_21" d="M137.424 120.796C136.728 119.881 136.032 118.966 135.336 118.051C135.548 117.848 135.759 117.644 135.971 117.441C136.506 118.285 137.04 119.128 137.573 120.303C137.572 120.634 137.424 120.796 137.424 120.796Z" fill="var(--fill-0, #077D57)"/>
<path id="Vector_22" d="M169.68 109.611C169.906 110.031 169.958 110.38 170.009 110.73C169.637 110.529 169.264 110.327 168.891 110.126C169.096 109.931 169.301 109.736 169.68 109.611Z" fill="var(--fill-0, #077D57)"/>
<path id="Vector_23" d="M122.034 184.035C121.92 183.878 121.906 183.58 121.918 183.432C122.298 183.576 122.666 183.869 123.033 184.162C122.982 184.291 122.93 184.421 122.878 184.55C122.635 184.431 122.391 184.312 122.034 184.035Z" fill="var(--fill-0, #077D57)"/>
<path id="Vector_24" d="M133.1 161.081C133.1 161.454 133.1 161.817 133.1 162.18C133.1 162.123 133.1 162.065 133.1 162.008C133.1 161.711 133.1 161.414 133.1 161.08C133.1 161.043 133.1 161.071 133.1 161.081Z" fill="var(--fill-0, #077D57)"/>
<path id="Vector_25" d="M92.8267 157.781C92.5902 158.129 92.3538 158.477 92.1173 158.825C91.9773 158.742 91.7093 158.594 91.7157 158.585C91.9611 158.248 92.2316 157.923 92.6904 157.706C92.8821 157.816 92.8267 157.781 92.8267 157.781Z" fill="var(--fill-0, #077D57)"/>
<path id="Vector_26" d="M92.8482 157.706C92.9572 157.38 93.0482 157.043 93.3626 156.618C93.5861 156.531 93.8315 156.651 93.9526 156.719C93.7937 157.047 93.5138 157.307 93.0137 157.621C92.7935 157.675 92.8301 157.696 92.8482 157.706Z" fill="var(--fill-0, #077D57)"/>
<path id="Vector_27" d="M138.202 119.678C138.504 120.338 138.598 121.126 138.692 121.915C138.316 121.54 137.94 121.166 137.573 120.429C137.583 120.066 137.993 119.806 138.202 119.678Z" fill="var(--fill-0, #077D57)"/>
<path id="Vector_28" d="M170.009 163.299C170.343 163.299 170.682 163.299 171.007 163.299C171.074 163.299 171.089 163.299 171.128 163.299C170.867 163.299 170.605 163.299 170.198 163.299C170.052 163.299 170.009 163.299 170.009 163.299Z" fill="var(--fill-0, #077D57)"/>
<path id="Vector_29" d="M88.3602 151.905C88.733 151.601 89.1059 151.298 89.4787 150.995C89.4709 151.356 89.463 151.717 89.0103 152.111C88.5655 152.143 88.3602 151.905 88.3602 151.905Z" fill="var(--fill-0, #077D57)"/>
<path id="Vector_30" d="M157.706 107.999C157.706 108.337 157.706 108.965 157.706 107.901C157.706 106.836 157.706 107.661 157.706 107.999Z" fill="var(--fill-0, #077D57)"/>
<path id="Vector_31" d="M72.7014 115.204V115.204V115.204Z" fill="var(--fill-0, #077D57)"/>
<path id="Vector_32" d="M136.455 148.758V148.758Z" fill="var(--fill-0, #077D57)"/>
<path id="Vector_33" d="M32.436 138.692V138.692Z" fill="var(--fill-0, #077D57)"/>
<path id="Vector_34" d="M90.5972 150.287C90.5972 150.653 90.5972 150.824 90.5972 150.995C90.5972 150.677 90.5972 150.359 90.5972 149.883C90.5972 149.847 90.5972 149.969 90.5972 150.287Z" fill="var(--fill-0, #077D57)"/>
<path id="Vector_35" d="M168.029 161.062C168.403 161.273 168.647 161.693 168.891 162.113C168.616 162.184 168.341 162.254 167.854 162.01C167.641 161.695 167.899 161.271 168.029 161.062Z" fill="var(--fill-0, #077D57)"/>
<path id="Vector_36" d="M171.128 163.299C170.776 163.299 170.393 163.299 170.009 163.299C170.332 163.299 170.654 163.299 171.009 163.299C171.042 163.299 171.097 163.299 171.128 163.299Z" fill="var(--fill-0, #077D57)"/>
<path id="Vector_37" d="M97.0961 169.969C96.8285 170.04 96.6582 170.012 96.2324 169.929C96.1107 169.511 96.2445 169.148 96.6822 168.891C97.0934 169.164 97.2007 169.33 97.3081 169.495C97.3081 169.495 97.1934 169.871 97.0961 169.969Z" fill="var(--fill-0, #077D57)"/>
<path id="Vector_38" d="M98.4265 169.272C98.1751 169.478 97.9236 169.684 97.4365 170.009C96.9899 170.015 96.7792 169.901 96.2652 169.603C96.0562 169.159 96.2584 168.953 97.1476 168.891C97.96 169.078 98.1932 169.175 98.4265 169.272Z" fill="var(--fill-0, #077D57)"/>
<path id="Vector_39" d="M97.308 168.601C97.445 168.214 97.8506 167.993 98.2561 167.773C98.376 168.051 98.4958 168.328 98.3785 168.834C97.9531 168.964 97.7649 168.866 97.308 168.601Z" fill="var(--fill-0, #077D57)"/>
<path id="Vector_40" d="M89.4787 152.333C89.2094 152.705 88.7941 152.969 88.3789 153.232C88.3467 152.939 88.3146 152.646 88.6632 152.178C89.0438 152.004 89.3328 152.224 89.4787 152.333Z" fill="var(--fill-0, #077D57)"/>
<path id="Vector_41" d="M91.4388 97.3082C91.0239 97.3082 90.8105 97.3082 90.5972 97.3082C90.8633 97.3082 91.1242 97.3082 91.3986 97.3082C91.4914 97.3082 91.7092 97.3082 91.7136 97.3082C91.7279 97.3082 91.6702 97.3082 91.4388 97.3082Z" fill="var(--fill-0, #077D57)"/>
<path id="Vector_42" d="M59.2796 99.545C59.1622 99.8563 58.8054 100.297 58.1611 100.664C58.2626 100.284 58.6514 99.9794 59.2796 99.545Z" fill="var(--fill-0, #077D57)"/>
<path id="Vector_43" d="M130.863 95.0714C131.509 95.0714 131.745 95.0714 131.981 95.0714C131.472 95.0714 130.962 95.0714 130.863 95.0714Z" fill="var(--fill-0, #077D57)"/>
<path id="Vector_44" d="M129.801 115.204C129.598 115.009 129.937 114.49 130.806 114.086C131.006 114.427 130.675 114.654 129.801 115.204Z" fill="var(--fill-0, #077D57)"/>
<path id="Vector_45" d="M108.493 95.0953C108.493 94.967 108.493 95.3573 108.493 96.1732C108.493 96.2707 108.493 95.9424 108.493 95.0953Z" fill="var(--fill-0, #077D57)"/>
<path id="Vector_46" d="M157.706 148.758V148.758V148.758Z" fill="var(--fill-0, #077D57)"/>
<path id="Vector_47" d="M114.072 98.4266C114.15 98.4266 113.88 98.4266 113.61 98.4266C113.377 98.4266 112.949 98.4266 112.967 98.4266C112.986 98.4266 113.453 98.4266 114.072 98.4266Z" fill="var(--fill-0, #077D57)"/>
<path id="Vector_48" d="M136.455 129.744V129.744V129.744Z" fill="var(--fill-0, #077D57)"/>
</g>
</svg>
