<svg preserveAspectRatio="none" width="100%" height="100%" overflow="visible" style="display: block;" viewBox="0 0 214.378 215.519" fill="none" xmlns="http://www.w3.org/2000/svg">
<g id="Group 5">
<path id="Vector" d="M103.634 36.4213C103.684 59.1586 103.684 81.4428 103.684 103.983C103.24 104.138 102.645 104.531 102.053 104.526C80.5504 104.348 59.0272 104.652 37.5519 103.765C19.0037 102.999 1.47089 85.2354 0.840723 66.4249C0.106886 44.521 0.669382 22.5724 0.669382 0.477708C0.909125 0.371547 1.35358 0.00276847 1.7978 0.00313989C22.1413 0.0184998 42.486 -0.062266 62.8277 0.146588C82.5347 0.349125 99.997 15.2965 103.634 36.4213Z" fill="var(--fill-0, #077D57)"/>
<path id="Vector_2" d="M6.11277e-05 172.874C0.62228 162.291 -0.149701 151.872 2.16863 142.214C6.45655 124.351 21.2589 112.898 39.3607 111.176C42.1762 110.908 45.0246 110.929 47.8578 110.926C66.3483 110.906 84.8388 110.916 103.784 110.916C103.89 112.822 104.055 114.438 104.056 116.054C104.074 133.968 104.124 151.882 104.053 169.796C103.945 197.276 85.9675 215.417 58.7878 215.483C39.7739 215.53 20.7597 215.47 1.74568 215.446C1.4214 215.446 1.0973 215.304 0 215.047C0 201.286 3.52107e-08 187.333 6.11277e-05 172.874Z" fill="var(--fill-0, #077D57)"/>
<path id="Vector_3" d="M118.922 110.937C136.267 110.938 153.117 110.801 169.964 110.976C190.993 111.194 206.777 123.398 212.272 143.654C213.276 147.353 213.745 151.309 213.774 155.151C213.92 174.419 213.84 193.689 213.826 212.959C213.826 213.605 213.675 214.252 213.555 215.221C211.986 215.321 210.541 215.491 209.095 215.492C191.079 215.51 173.062 215.542 155.046 215.494C127.865 215.42 109.845 197.241 109.771 169.807C109.719 150.397 109.761 130.988 109.761 110.937C112.872 110.937 115.648 110.937 118.922 110.937Z" fill="var(--fill-0, #077D57)"/>
<path id="Vector_4" d="M149.929 104.233C136.633 104.233 123.837 104.233 110.463 104.233C110.463 101.472 110.451 99.3245 110.464 97.1768C110.586 77.7372 110.205 58.2771 110.975 38.8638C111.767 18.9061 128.66 1.23474 148.276 0.449123C170.051 -0.422839 191.886 0.249559 213.939 0.249559C214.054 0.671851 214.374 1.2942 214.371 1.91507C214.275 23.2143 214.643 44.5316 213.88 65.807C213.189 85.0753 195.497 102.57 176.444 103.768C167.796 104.311 159.102 104.101 149.929 104.233Z" fill="var(--fill-0, #077D57)"/>
</g>
</svg>
