<svg preserveAspectRatio="none" width="100%" height="100%" overflow="visible" style="display: block;" viewBox="0 0 214.402 234.632" fill="none" xmlns="http://www.w3.org/2000/svg">
<g id="Group 2">
<path id="Vector" d="M142.007 111.797C130.645 123.723 119.536 135.398 107.295 148.261C104.145 144.437 102.106 141.551 99.6659 139.072C88.3559 127.581 76.8163 116.322 65.5798 104.759C48.0031 86.672 47.5567 62.8261 64.2306 43.9302C65.2301 42.7975 66.3403 41.7658 67.3825 40.671C80.2348 27.1696 93.0842 13.6653 106.088 0.000160217C108.182 1.86288 109.181 2.66436 110.082 3.56568C122.787 16.2717 135.535 28.935 148.162 41.721C167.194 60.994 167.209 86.2066 148.3 105.474C146.301 107.512 144.273 109.522 142.007 111.797Z" fill="var(--fill-0, #077D57)"/>
<path id="Vector_2" d="M52.7097 234.583C42.8647 234.689 33.4739 234.996 24.7699 230.655C8.95558 222.767 0.56636 209.76 0.203567 192C-0.193213 172.578 0.109125 153.141 0.127096 133.711C0.127524 133.231 0.365616 132.751 0.563181 132.005C1.62766 131.865 2.73853 131.588 3.84836 131.593C24.0221 131.674 44.2124 131.313 64.3648 132.033C83.7425 132.725 101.168 148.979 102.249 168.642C103.441 190.335 102.521 212.147 102.521 234.583C86.0901 234.583 69.65 234.583 52.7097 234.583Z" fill="var(--fill-0, #077D57)"/>
<path id="Vector_3" d="M210.904 131.58C212.395 132.727 214.245 133.866 214.249 135.011C214.318 155.107 214.703 175.226 213.901 195.293C213.114 215.013 198.284 232.258 179.008 233.623C156.835 235.194 134.47 233.988 111.636 233.988C111.636 229.069 111.636 224.05 111.636 219.031C111.636 205.011 111.606 190.991 111.643 176.97C111.714 149.493 129.149 131.763 156.391 131.595C174.395 131.484 192.4 131.575 210.904 131.58Z" fill="var(--fill-0, #077D57)"/>
</g>
</svg>
