<svg preserveAspectRatio="none" width="100%" height="100%" overflow="visible" style="display: block;" viewBox="0 0 270.434 274.907" fill="none" xmlns="http://www.w3.org/2000/svg">
<g id="Group 7">
<path id="Vector" d="M79.8085 87.4608C78.1649 78.4502 69.7529 71.7963 59.8385 73.4248C50.6061 74.9413 44.5652 80.6795 44.2819 91.9087C44.1233 98.1979 44.2243 104.494 44.1925 110.786C44.1905 111.167 44.048 111.547 43.9021 112.267C33.5372 112.267 23.1292 112.267 12.2436 112.267C12.2436 94.8549 12.2436 77.3678 12.2436 59.8806C11.851 59.7504 11.4583 59.6202 11.0657 59.49C9.07531 63.2855 7.23962 67.1762 4.99953 70.8182C4.33515 71.8983 2.53275 72.2785 1.25182 72.9794C0.829644 71.5476 -0.348681 69.7966 0.100485 68.7326C5.49012 55.9656 13.0422 44.4648 22.4152 34.3504C31.5029 24.5437 41.3162 15.4182 53.0379 8.65647C53.8873 8.16651 54.5882 7.41921 55.6058 6.58972C53.7956 4.70469 49.8332 4.23584 51.965 0.237283C53.4806 5.24532e-05 54.831 5.24063e-05 56.69 0.206168C63.2219 3.38642 63.6669 3.36629 66.3088 5.24297e-05C68.4356 5.24297e-05 70.5624 5.24767e-05 72.9556 0.297452C72.0863 2.74709 70.9505 4.89933 69.7876 7.10299C74.0331 10.3284 78.9179 14.0101 83.7716 17.7322C101.156 31.0637 114.519 47.6711 124.153 67.3203C125.126 69.3047 126.161 71.3792 123.487 72.6461C120.701 73.966 119.988 71.4848 119.035 69.6766C117.392 66.5586 115.762 63.4334 114.052 60.3529C113.985 60.2333 113.143 60.5442 112.394 60.6104C111.061 60.3343 109.998 60.1024 108.794 59.6298C107.575 57.3259 106.716 55.1012 105.351 53.2499C104.236 51.7389 102.97 49.2792 99.8378 51.7065C104.183 55.6406 106.877 60.1835 106.669 66.0469C106.659 66.322 108.15 66.6505 109.176 67.0468C110.492 67.6018 111.573 68.0641 112.7 68.8934C112.715 82.4093 112.686 95.5582 112.382 108.815C103.034 109.273 93.9608 109.748 84.8855 109.787C83.9704 109.791 82.3996 107.232 82.2478 105.748C81.8505 101.867 82.2483 97.9089 81.9622 94.0083C81.8392 92.3319 80.8081 90.7221 80.1896 89.0821C80.1896 89.0821 80.353 89.0645 80.3014 88.9208C80.1026 88.3383 79.9556 87.8995 79.8085 87.4608ZM15.2419 65.3606C15.7618 65.982 16.2817 66.6034 16.8016 67.2247C17.286 66.4062 17.9339 65.6417 18.2251 64.7594C19.2211 61.7414 19.9078 58.6086 21.0831 55.6677C21.7313 54.0456 23.1196 52.7192 24.1742 51.2595C23.8203 50.8972 23.4663 50.5349 23.1124 50.1726C21.8604 51.1911 20.0569 51.96 19.4615 53.2756C17.7845 56.9815 16.6042 60.9122 15.2419 65.3606ZM33.8694 50.7836C32.5933 51.4095 30.6536 51.7106 30.1599 52.7194C28.3511 56.4156 26.9296 60.3148 25.586 64.2147C25.2823 65.0964 25.8795 66.2885 26.0925 67.5132C26.9868 67.1793 27.6348 67.068 27.6449 66.9148C28.0386 60.9028 31.3089 56.1119 33.8694 50.7836ZM86.6276 64.1486C85.503 60.4622 84.4916 56.7347 83.1797 53.1162C82.8223 52.1304 81.5604 51.4727 80.7136 50.6644C80.6664 51.9182 80.3375 53.241 80.6247 54.4129C81.5048 58.005 82.5597 61.559 83.6919 65.0811C83.9549 65.8991 84.7948 66.5317 85.3693 67.2496C85.798 66.4218 86.2268 65.5939 86.6276 64.1486ZM63.8564 53.608C63.379 52.5354 62.9017 51.4629 62.4243 50.3903C61.9114 50.5065 61.3985 50.6226 60.8855 50.7388C60.8855 55.7319 60.8409 60.726 60.9531 65.7166C60.9646 66.2281 61.9152 66.7184 62.43 67.2186C62.9016 66.5733 63.7557 65.9428 63.7812 65.2804C63.9218 61.6289 63.86 57.9696 63.8564 53.608ZM41.1271 63.3959C42.29 59.2222 43.4529 55.0484 44.7446 50.4123C39.2901 53.8591 36.4691 64.0221 40.0917 67.7098C40.4943 66.2657 40.806 65.1477 41.1271 63.3959ZM97.7729 58.9645C96.3441 55.3231 94.9089 51.6878 90.5162 50.5367C92.9882 56.3007 95.3002 61.692 97.5266 66.8836C98.928 65.3486 99.0562 63.8155 97.7729 58.9645ZM74.0732 65.8138C74.3622 60.4881 73.5455 55.4 71.0304 49.9002C70.2528 51.2078 69.5176 51.8633 69.578 52.4347C70.0552 56.9471 70.6401 61.4506 71.3718 65.9275C71.4173 66.2063 72.9799 66.2372 74.0732 65.8138ZM52.112 53.3782C51.5877 57.916 49.426 62.4854 51.3066 66.9766C51.7486 66.9819 52.1905 66.9873 52.6325 66.9926C53.502 61.656 54.3715 56.3195 55.2411 50.9829C54.9134 50.8188 54.5857 50.6547 54.258 50.4905C53.5737 51.2469 52.8894 52.0032 52.112 53.3782ZM73.4831 32.0779C74.4655 34.3072 75.448 36.5364 76.4304 38.7657C77.054 38.5212 77.6776 38.2767 78.3012 38.0322C77.442 35.4951 76.5829 32.958 75.7238 30.4209C74.9678 30.7876 74.2117 31.1544 73.4831 32.0779ZM50.5079 33.5521C50.5212 32.363 50.5345 31.1738 50.5478 29.9847C49.9547 30.0767 48.9266 30.0198 48.8362 30.2839C47.9622 32.8358 47.2458 35.4417 46.4843 38.0322C47.035 38.2226 47.5856 38.413 48.1362 38.6034C48.8685 37.1039 49.6008 35.6043 50.5079 33.5521ZM63.8511 19.0587C63.3628 17.8961 62.8744 16.7334 62.3861 15.5707C61.886 16.0845 60.9882 16.5803 60.9642 17.1154C60.9041 18.4543 61.2402 19.811 61.4173 21.1605C62.2181 20.6521 63.0189 20.1438 63.8511 19.0587ZM61.0834 36.8904C61.0834 38.6128 61.0834 40.3353 61.0834 42.0577C61.4937 42.1932 61.9041 42.3286 62.3145 42.464C62.8223 41.2827 63.7815 40.0659 63.6924 38.9314C63.6236 38.0561 62.2394 37.284 61.0834 36.8904Z" fill="var(--fill-0, #077D57)"/>
<path id="Vector_2" d="M217.977 5.24297e-05C219.296 3.48484 217.441 5.2959 214.39 6.22981C221.695 11.9443 229.016 17.289 235.902 23.1451C247.217 32.7671 256.512 44.1596 263.933 57.0417C265.879 60.4185 267.641 63.901 269.469 67.3447C270.523 69.3295 271.213 71.6754 268.794 72.7288C267.954 73.0945 265.595 71.2714 264.691 69.9337C262.482 66.6616 260.717 63.0895 258.575 59.9239C258.385 60.6114 258.393 61.0131 258.401 61.4148C258.434 77.2081 258.468 93.0013 258.37 109.394C258.101 110.626 257.962 111.257 257.823 111.889C256.972 112.125 256.122 112.568 255.271 112.567C245.707 112.56 236.142 112.484 226.365 111.809C225.949 104.334 225.744 97.4771 225.54 90.62C225.497 77.1987 211.955 69.9116 200.983 74.5131C192.515 78.0648 189.563 85.2514 189.297 93.8529C189.144 98.8186 189.233 103.792 188.846 109.2C180.124 109.822 171.769 110.049 163.412 110.166C160.696 110.203 159.346 108.576 159.341 105.928C159.319 94.5481 159.253 83.1664 159.453 71.7897C159.477 70.392 161.006 69.0208 162.104 67.5596C162.877 66.3587 163.725 65.2658 163.827 64.107C164.238 59.449 165.785 55.3955 169.239 52.1337C169.461 51.9241 169.208 51.2114 169.162 50.5168C165.163 51.4381 163.865 54.602 161.953 57.5064C160.2 57.5389 158.798 57.5697 157.27 57.8246C154.751 62.5347 152.43 67.0629 149.896 71.4683C149.437 72.2648 147.746 73.2125 147.249 72.942C146.296 72.4234 145.4 71.1474 145.214 70.0605C145.042 69.0518 145.656 67.7821 146.219 66.7957C149.814 60.4976 153.164 54.0265 157.207 48.0247C165.614 35.5437 176.168 25.0005 188.04 15.7957C192.328 12.471 196.834 9.42698 201.522 6.05185C198.304 4.85718 195.745 3.71397 197.067 5.24297e-05C199.194 5.24297e-05 201.32 5.24063e-05 203.757 0.302379C207.025 3.27747 209.285 3.06363 210.458 5.24297e-05C212.845 5.24297e-05 215.232 5.24297e-05 217.977 5.24297e-05ZM172.936 67.2154C173.334 66.4689 174.043 65.7375 174.08 64.9736C174.308 60.2553 175.713 56.0958 179.228 52.775C179.627 52.3981 179.769 51.7488 180.312 50.6597C179.069 50.8325 178.237 50.6959 177.797 51.0486C173.842 54.2209 171.953 58.6018 171.176 63.4386C170.988 64.6026 171.922 65.9469 172.936 67.2154ZM244.318 64.624C244.26 59.5334 242.204 55.2689 238.773 51.6441C238.3 51.1439 237.276 51.1646 236.507 50.9442C236.625 51.8044 236.566 52.7398 236.892 53.5117C238.282 56.7954 239.837 60.0094 241.224 63.2944C241.75 64.5407 241.985 65.9095 242.69 68.4219C243.607 66.6107 243.954 65.9238 244.318 64.624ZM246.36 52.7304C248.809 57.406 251.258 62.0816 253.753 66.8437C253.488 66.9834 254.005 66.8896 254.119 66.6236C255.785 62.7148 251.79 52.2655 247.997 50.8581C247.588 50.7061 246.734 51.7506 246.36 52.7304ZM209.589 64.3766C209.586 60.5765 209.672 56.7726 209.506 52.9795C209.472 52.1863 208.512 51.4333 207.979 50.6617C207.5 51.454 206.637 52.2317 206.606 53.0409C206.458 56.9668 206.474 60.9026 206.579 64.8309C206.6 65.5917 207.278 66.3349 207.652 67.0862C208.283 66.3982 208.915 65.7102 209.589 64.3766ZM187.049 52.6741C183.062 60.4504 182.543 65.449 185.329 66.8403C186.739 62.3409 188.193 57.8132 189.55 53.2566C189.782 52.478 189.598 51.5755 189.606 50.7302C188.848 51.2114 188.09 51.6925 187.049 52.6741ZM229.384 65.3875C229.766 65.9522 230.147 66.517 230.529 67.0817C230.922 66.4955 231.733 65.8311 231.64 65.3355C230.958 61.6875 230.258 58.0255 229.215 54.4705C228.757 52.9107 227.482 51.5909 226.578 50.1621C226.182 50.3891 225.787 50.6161 225.391 50.8431C226.714 55.4881 228.037 60.133 229.384 65.3875ZM218.293 54.982C218.073 54.3701 217.925 53.7182 217.616 53.1554C217.131 52.2738 216.537 51.4524 215.989 50.6056C215.73 51.6949 215.16 52.8163 215.269 53.8676C215.629 57.3511 216.142 60.8267 216.798 64.2667C217.001 65.3314 217.85 66.2729 218.403 67.2709C218.834 66.0741 219.693 64.8479 219.613 63.6865C219.427 60.9891 218.788 58.3229 218.293 54.982ZM196.344 59.7389C196.344 62.1909 196.344 64.643 196.344 67.0951C196.88 67.1203 197.416 67.1455 197.952 67.1708C198.863 61.7246 199.775 56.2785 200.686 50.8324C200.237 50.6258 199.789 50.4192 199.34 50.2126C198.616 51.496 197.657 52.7063 197.228 54.0819C196.736 55.661 196.715 57.3866 196.344 59.7389ZM195.568 34.2978C195.755 32.8507 195.941 31.4037 196.128 29.9567C195.585 29.8487 195.041 29.7406 194.498 29.6326C193.557 32.2259 192.615 34.8192 191.674 37.4126C192.171 37.704 192.667 37.9954 193.164 38.2869C193.935 37.1488 194.706 36.0107 195.568 34.2978ZM219.137 32.4612C220.43 34.1142 219.619 37.5753 223.909 37.7074C222.721 34.5532 221.776 32.0445 220.831 29.5357C220.455 29.5807 220.08 29.6258 219.704 29.6708C219.501 30.4284 219.298 31.186 219.137 32.4612ZM206.532 17.3398C206.528 17.8571 206.382 18.4265 206.55 18.8802C206.857 19.7099 207.349 20.4711 207.764 21.2609C208.343 20.9205 209.422 20.5696 209.415 20.2416C209.387 18.8945 209.028 17.5544 208.791 16.2118C208.048 16.3994 207.304 16.587 206.532 17.3398ZM206.54 40.3107C206.983 40.9237 207.426 41.5366 207.87 42.1496C208.443 41.2809 209.517 40.3847 209.472 39.5499C209.404 38.3139 208.541 37.1214 208.017 35.9104C207.6 36.0603 207.183 36.2103 206.766 36.3602C206.687 37.4769 206.608 38.5935 206.54 40.3107Z" fill="var(--fill-0, #077D57)"/>
<path id="Vector_3" d="M54.0748 274.907C53.2991 273.245 52.0522 271.023 52.6941 270.059C53.537 268.792 55.8669 267.907 57.5596 267.904C108.852 267.795 160.145 267.811 211.438 267.82C217.207 267.821 217.813 268.507 217.476 274.573C163.179 274.907 108.812 274.907 54.0748 274.907Z" fill="var(--fill-0, #077D57)"/>
<path id="Vector_4" d="M116.695 108.595C118.645 107.131 120.594 105.667 123.02 104.188C124.387 103.598 125.277 103.023 126.168 102.448C124.819 101.426 123.58 100.19 122.098 99.4273C119.286 97.9806 117.988 95.3834 119.343 92.8295C120.74 90.1961 123.076 91.0876 124.701 92.2242C131.55 97.0126 138.117 97.1448 144.917 92.0764C146.997 90.5254 149.567 90.8084 150.882 93.4569C152.129 95.9667 151.182 97.9712 148.676 99.251C147.054 100.079 145.473 100.985 143.72 101.94C144.88 102.849 145.965 103.7 147.402 104.81C147.949 105.222 148.144 105.372 148.341 105.52C148.721 105.726 149.102 105.932 149.799 106.388C150.309 106.795 150.505 106.949 150.702 107.1C151.07 107.351 151.437 107.602 152.146 108.058C152.675 108.404 152.865 108.542 153.057 108.678C153.27 108.708 153.464 108.787 153.884 109.248C154.82 110.065 155.508 110.55 156.197 111.034C156.197 111.034 156.552 111.085 156.897 111.299C157.946 111.901 158.65 112.289 159.353 112.677C159.478 112.9 159.603 113.123 160.046 113.553C160.557 113.904 160.752 114.046 160.95 114.184C161.192 114.24 161.397 114.36 161.85 114.907C164.257 115.707 166.376 116.516 168.498 116.523C195.864 116.609 223.232 116.579 250.599 116.585C252.17 116.585 253.742 116.602 255.311 116.667C257.679 116.765 259.063 117.755 258.511 120.387C230.962 120.432 203.412 120.476 175.863 120.52C174.332 120.523 172.801 120.521 170.877 121.379C174.2 124.384 177.68 127.233 180.813 130.424C187.67 137.407 194.93 144.106 200.956 151.762C208.668 161.559 215.497 172.072 222.361 182.504C225.291 186.958 227.489 191.921 229.735 196.784C230.74 198.959 231.031 201.53 228.068 202.762C225.196 203.955 223.95 202.313 222.736 199.856C219.453 193.217 215.869 186.727 212.405 180.178C212.065 180.244 211.724 180.31 211.384 180.376C211.384 181.705 211.384 183.034 211.384 184.363C211.383 209.029 211.305 233.694 211.463 258.358C211.488 262.153 210.419 263.257 206.614 263.192C193.367 262.966 180.113 263.149 166.864 263.032C165.607 263.02 164.36 261.999 163.105 260.75C163.135 253.182 163.233 246.311 163.168 239.442C163.14 236.51 162.773 233.582 162.56 230.652C162.46 215.676 151.879 206.157 141.033 203.923C123.81 200.376 107.33 213.369 107.283 230.868C107.257 240.448 107.279 250.029 107.264 259.609C107.262 261.297 107.562 263.113 104.855 263.105C89.6397 263.059 74.4242 263.083 58.705 263.083C58.705 235.64 58.705 208.431 58.705 181.223C58.3359 181.095 57.9668 180.968 57.5977 180.841C55.6885 184.107 53.6997 187.33 51.8926 190.652C50.141 193.872 48.4083 197.123 46.9857 200.494C45.9593 202.926 44.4203 203.828 42.132 202.799C39.584 201.652 38.7658 199.606 40.1767 196.984C44.075 189.739 47.5571 182.225 51.9938 175.326C57.6638 166.509 63.6212 157.78 70.3549 149.77C76.9408 141.936 84.6162 135.011 91.9025 127.777C94.2346 125.461 96.8508 123.432 100.251 120.477C69.7726 120.477 40.443 120.477 10.7857 120.139C11.7251 118.75 12.8462 117.322 14.3019 116.758C15.6759 116.226 17.4019 116.584 18.9731 116.584C46.6065 116.579 74.2399 116.591 101.873 116.557C104.421 116.554 107.262 117.092 108.809 114.117C109.174 113.786 109.539 113.455 110.296 112.9C111.91 111.898 113.132 111.121 114.355 110.343C114.56 110.162 114.765 109.981 115.289 109.538C115.971 109.049 116.333 108.822 116.695 108.595ZM182.327 170.212C180.744 169.944 179.162 169.677 177.58 169.409C178.111 170.903 178.455 172.501 179.213 173.869C180.644 176.448 182.79 178.724 183.764 181.44C185.013 184.921 185.257 188.75 186.246 192.344C186.54 193.411 187.887 194.188 188.751 195.098C189.643 194.136 191.364 193.113 191.297 192.223C190.693 184.174 188.743 176.564 182.327 170.212ZM200.282 182.467C200.944 185.901 201.473 189.371 202.352 192.749C202.607 193.727 203.869 194.442 204.669 195.278C205.507 194.301 206.924 193.396 207.054 192.333C207.285 190.455 206.852 188.459 206.484 186.553C205.244 180.127 202.663 174.314 197.679 169.938C196.814 169.178 194.794 169.733 193.307 169.681C193.699 170.966 193.848 172.4 194.529 173.507C196.287 176.366 198.279 179.081 200.282 182.467ZM86.7988 179.317C88.3306 177.257 90.0128 175.287 91.3299 173.097C91.9759 172.023 91.9441 170.541 92.2191 169.244C90.8482 169.526 89.0757 169.357 88.171 170.162C81.7668 175.863 79.0267 183.284 79.017 191.708C79.0156 192.878 80.3926 194.049 81.1315 195.22C81.9608 194.109 83.1806 193.112 83.547 191.865C84.7083 187.912 85.5508 183.865 86.7988 179.317ZM137.909 183.13C137.896 179.347 138.098 175.544 137.737 171.795C137.629 170.678 135.945 169.712 134.983 168.677C134.148 169.754 132.628 170.807 132.591 171.911C132.369 178.555 132.374 185.215 132.601 191.859C132.64 193.003 134.107 194.097 134.915 195.214C135.906 194.055 137.52 193.008 137.756 191.711C138.215 189.185 137.902 186.518 137.909 183.13ZM66.2762 178.398C65.2432 182.913 64.0584 187.402 63.3007 191.963C63.1422 192.917 64.5596 194.132 65.2507 195.227C66.128 194.172 67.6622 193.182 67.7759 192.05C68.5105 184.735 70.2275 177.971 75.9896 172.788C76.6745 172.171 76.5024 170.603 76.7275 169.476C75.4482 169.506 73.6119 169.006 72.9884 169.661C70.5902 172.18 68.5803 175.069 66.2762 178.398ZM103.553 171.525C99.686 177.606 98.1358 184.382 97.9153 191.46C97.877 192.69 99.1749 193.961 99.8557 195.213C100.848 194.185 101.951 193.239 102.784 192.095C103.194 191.53 103.043 190.585 103.249 189.84C104.762 184.386 106.382 178.959 107.774 173.474C108.127 172.082 107.779 170.511 107.753 169.022C106.458 169.69 105.163 170.358 103.553 171.525ZM163.41 175.968C164.66 181.232 165.81 186.524 167.23 191.742C167.577 193.017 168.806 194.052 169.63 195.197C170.593 193.996 172.067 192.915 172.386 191.562C172.746 190.032 172.334 188.166 171.796 186.606C169.901 181.1 167.921 175.615 165.666 170.251C165.329 169.45 163.343 169.342 162.12 168.913C161.944 170.182 161.514 171.484 161.674 172.709C161.798 173.658 162.66 174.51 163.41 175.968ZM146.885 179.705C147.334 183.562 147.618 187.451 148.319 191.262C148.577 192.664 149.759 194.934 150.626 194.985C152.916 195.119 153.886 193.258 153.645 190.961C153.428 188.903 153.285 186.83 152.934 184.794C152.146 180.209 151.423 175.597 150.263 171.101C150.002 170.092 148.059 169.516 146.89 168.741C146.464 170.014 145.651 171.302 145.698 172.558C145.778 174.723 146.392 176.869 146.885 179.705ZM121.427 192.279C122.439 185.885 123.571 179.506 124.367 173.086C124.538 171.71 123.495 170.183 123.011 168.726C121.889 169.703 119.989 170.535 119.775 171.682C118.538 178.303 117.598 184.987 116.831 191.681C116.707 192.76 117.954 193.997 118.568 195.16C119.496 194.413 120.423 193.666 121.427 192.279ZM115.145 137.325C113.737 140.705 112.197 144.038 111.008 147.493C110.684 148.434 111.417 149.739 111.665 150.877C112.819 150.346 114.625 150.102 115.009 149.232C116.347 146.201 117.361 142.991 118.081 139.756C118.228 139.096 116.564 138.033 115.145 137.325ZM152.056 140.39C152.883 143.107 153.546 145.891 154.618 148.507C155.041 149.54 156.377 150.198 157.298 151.027C157.933 149.78 159.269 148.406 159.069 147.312C158.54 144.416 157.468 141.591 156.342 138.85C156.026 138.082 154.445 137.055 154.016 137.273C153.085 137.746 152.522 138.945 152.056 140.39ZM137.907 151.686C137.9 151.165 138.096 150.503 137.85 150.15C136.986 148.909 135.97 147.774 135.012 146.6C134.165 147.81 132.999 148.918 132.564 150.262C132.145 151.556 132.226 153.16 132.569 154.506C132.84 155.568 133.841 156.445 134.519 157.403C135.608 156.631 136.892 156.019 137.71 155.023C138.172 154.461 137.867 153.268 137.907 151.686ZM132.514 123.56C133.363 124.334 134.173 125.656 135.073 125.721C135.906 125.781 137.465 124.6 137.601 123.782C137.959 121.639 137.988 119.343 137.573 117.22C137.407 116.367 135.7 115.225 134.767 115.288C133.957 115.343 132.829 116.817 132.595 117.836C132.226 119.445 132.487 121.199 132.514 123.56Z" fill="var(--fill-0, #077D57)"/>
<path id="Vector_5" d="M112.718 228.231C113.262 219.077 118.07 212.9 126.437 209.729C134.662 206.612 142.51 207.439 149.496 213.347C155.256 218.219 158.001 224.213 157.752 231.863C157.454 241.025 157.578 250.205 157.739 259.374C157.791 262.307 156.866 263.195 153.94 263.162C140.709 263.01 127.476 263.071 113.701 262.921C112.808 262.63 112.458 262.473 112.107 262.316C112.076 261.712 112.045 261.109 112.15 259.897C112.431 248.937 112.574 238.584 112.718 228.231Z" fill="var(--fill-0, #077D57)"/>
<path id="Vector_6" d="M192.475 90.622C193.253 85.3083 194.934 80.6863 200.079 77.7952C210.15 72.1359 222.62 78.8474 223.03 90.4616C223.251 96.7403 222.999 103.034 223.09 109.32C223.125 111.713 222.088 112.624 219.816 112.603C211.045 112.523 202.274 112.482 193.166 112.046C192.702 111.476 192.577 111.286 192.454 111.093C192.421 104.752 192.387 98.4113 192.388 91.6133C192.407 90.9748 192.424 90.7966 192.475 90.622Z" fill="var(--fill-0, #077D57)"/>
<path id="Vector_7" d="M77.3435 102.386C77.3435 112.613 77.3435 112.613 67.4107 112.613C60.9892 112.613 54.5676 112.613 47.7096 112.613C47.5674 111.172 47.3461 109.924 47.338 108.675C47.3003 102.902 47.5215 97.1195 47.2747 91.3565C46.9234 83.1532 52.3687 77.2061 59.6484 75.7158C66.7439 74.2632 74.6521 78.7516 76.6616 86.4046C77.9529 91.3222 77.1872 96.7799 77.3435 102.386Z" fill="var(--fill-0, #077D57)"/>
<path id="Vector_8" d="M258.825 120.43C259.063 117.755 257.679 116.765 255.311 116.667C253.742 116.602 252.17 116.585 250.599 116.585C223.232 116.579 195.865 116.609 168.498 116.523C166.376 116.516 164.257 115.707 161.938 115.064C188.45 114.904 215.161 114.952 241.871 114.997C247.502 115.007 253.144 114.815 258.754 115.158C260.035 115.236 261.204 117.147 262.424 118.214C261.328 118.967 260.233 119.72 258.825 120.43Z" fill="var(--fill-0, #077D57)"/>
<path id="Vector_9" d="M108.482 114.172C107.262 117.092 104.421 116.554 101.873 116.557C74.2399 116.591 46.6064 116.579 18.973 116.584C17.4019 116.584 15.6758 116.226 14.3019 116.758C12.8461 117.321 11.7251 118.749 10.4188 120.093C9.59936 119.328 8.81903 118.271 8.03869 117.214C9.18389 116.477 10.322 115.112 11.4754 115.099C24.8572 114.947 38.2414 114.999 51.6249 114.998C68.8136 114.997 86.0024 115.018 103.191 114.964C104.846 114.959 106.5 114.484 108.482 114.172Z" fill="var(--fill-0, #077D57)"/>
<path id="Vector_10" d="M159.532 112.645C158.649 112.289 157.946 111.902 157.071 111.342C157.109 109.929 157.497 108.688 157.501 107.447C157.543 91.0693 157.531 74.692 157.464 57.9577C158.797 57.5699 160.2 57.5391 161.904 57.8016C162.083 61.2758 161.96 64.4566 161.838 67.6375C161.006 69.021 159.477 70.3923 159.452 71.7899C159.252 83.1667 159.319 94.5483 159.341 105.928C159.346 108.576 160.695 110.204 163.412 110.166C171.769 110.05 180.124 109.823 188.795 109.566C189.143 110.097 189.175 110.7 188.794 111.592C186.694 111.873 185.008 111.82 183.324 111.864C175.569 112.065 167.814 112.293 160.059 112.511C160.059 112.511 159.71 112.613 159.532 112.645Z" fill="var(--fill-0, #077D57)"/>
<path id="Vector_11" d="M114.098 110.285C113.133 111.121 111.911 111.898 110.408 112.746C110.127 112.816 109.843 112.764 109.419 112.577C99.7653 112.31 90.5357 112.228 81.306 112.147C81.0335 110.285 80.5755 108.429 80.5233 106.561C80.3672 100.982 80.3702 95.3993 80.2504 89.4501C80.8082 90.7222 81.8393 92.332 81.9623 94.0084C82.2484 97.9089 81.8506 101.867 82.2479 105.748C82.3997 107.232 83.9705 109.791 84.8856 109.787C93.961 109.748 103.034 109.273 112.382 108.815C113.051 109.214 113.446 109.721 114.098 110.285Z" fill="var(--fill-0, #077D57)"/>
<path id="Vector_12" d="M81.5806 112.3C90.5358 112.228 99.7655 112.309 109.293 112.507C100.346 112.566 91.1006 112.51 81.5806 112.3Z" fill="var(--fill-0, #077D57)"/>
<path id="Vector_13" d="M109.177 67.047C108.918 64.8284 108.893 62.7023 108.902 60.2235C109.998 60.1026 111.062 60.3346 112.394 60.6106C112.689 63.0418 112.715 65.4289 112.698 68.1713C111.574 68.0643 110.492 67.602 109.177 67.047Z" fill="var(--fill-0, #077D57)"/>
</g>
</svg>
