<svg preserveAspectRatio="none" width="100%" height="100%" overflow="visible" style="display: block;" viewBox="0 0 111.715 300" fill="none" xmlns="http://www.w3.org/2000/svg">
<g id="Group 1">
<path id="Vector" d="M58.2606 101.04C58.2892 96.8192 58.1589 93.0943 58.3767 89.3905C58.9805 79.1201 66.6053 69.7566 76.6638 68.9866C88.2223 68.1018 99.8974 68.7813 111.348 68.7813C111.348 81.251 112.067 93.5697 111.106 105.752C110.416 114.497 102.181 121.833 93.3084 122.361C81.8891 123.039 70.4007 122.526 58.2605 122.526C58.2605 115.592 58.2605 108.569 58.2606 101.04Z" fill="var(--fill-0, #077D57)"/>
<path id="Vector_2" d="M76.3313 182.075C70.1923 182.075 64.5532 182.075 58.7148 182.075C58.7148 169.575 57.9561 157.424 58.96 145.424C59.7334 136.178 67.5032 128.747 76.7074 128.054C88.2613 127.183 99.9275 127.844 111.436 127.844C111.436 140.094 112.199 152.263 111.202 164.282C110.361 174.426 100.91 181.442 89.8372 182.008C85.5118 182.229 81.167 182.064 76.3313 182.075Z" fill="var(--fill-0, #077D57)"/>
<path id="Vector_3" d="M85.486 245.48C94.4371 245.48 102.906 245.48 111.155 245.48C111.155 258.545 112.063 271.201 110.852 283.646C109.967 292.737 100.715 299.545 91.5285 299.828C80.711 300.162 69.8758 299.907 58.2578 299.907C58.2578 295.187 58.2577 290.537 58.2579 285.887C58.2581 280.651 58.2388 275.414 58.2628 270.178C58.3328 254.952 66.9387 246.007 82.0031 245.488C83.0022 245.454 84.0034 245.481 85.486 245.48Z" fill="var(--fill-0, #077D57)"/>
<path id="Vector_4" d="M53.7163 269.015C53.7254 279.414 53.7254 289.352 53.7254 299.435C41.3028 299.435 29.1473 300.383 17.2129 299.144C7.10714 298.094 0.410301 288.834 0.165501 278.387C-0.0866666 267.626 0.109493 256.854 0.109493 246.246C12.6347 246.246 24.8137 245.367 36.8029 246.518C46.7343 247.472 52.6168 256.439 53.7163 269.015Z" fill="var(--fill-0, #077D57)"/>
<path id="Vector_5" d="M58.2579 233.887C58.2683 225.108 58.1192 216.823 58.3283 208.547C58.6078 197.487 65.9292 188.115 76.6441 187.198C88.1777 186.211 99.8571 186.975 111.248 186.975C111.248 199.403 112.097 211.91 110.969 224.232C110.122 233.469 101.033 240.447 91.4032 240.841C80.6036 241.283 69.7728 240.943 58.2579 240.943C58.2579 238.629 58.2579 236.507 58.2579 233.887Z" fill="var(--fill-0, #077D57)"/>
<path id="Vector_6" d="M18.9269 240.755C6.14625 237.429 0.179468 229.887 0.0626535 217.142C-0.0285946 207.186 0.0443916 197.228 0.0443916 186.438C2.07887 186.438 3.82311 186.437 5.56734 186.438C13.9042 186.44 22.2443 186.292 30.5772 186.478C44.2032 186.783 53.1232 195.477 53.6186 209.249C53.9706 219.035 53.7082 228.844 53.6954 238.642C53.6945 239.294 53.4844 239.945 53.3329 240.82C41.943 240.82 30.65 240.82 18.9269 240.755Z" fill="var(--fill-0, #077D57)"/>
<path id="Vector_7" d="M20.044 122.692C7.9059 120.843 0.393763 112.57 0.11904 100.72C-0.100072 91.2702 0.0505617 81.8111 0.0496604 72.3559C0.0495682 71.3467 0.133711 70.3374 0.215637 68.5025C1.97726 68.5025 3.72129 68.502 5.46533 68.5026C14.1305 68.5057 22.7978 68.3848 31.4602 68.5425C43.7163 68.7655 52.8623 77.2081 53.429 89.5251C53.931 100.437 53.5342 111.392 53.5342 122.754C42.3191 122.754 31.3973 122.754 20.044 122.692Z" fill="var(--fill-0, #077D57)"/>
<path id="Vector_8" d="M47.4711 134.347C51.4559 138.781 53.5559 143.654 53.5901 149.299C53.6554 160.078 53.6091 170.857 53.6091 181.765C41.9878 181.765 30.7986 182.431 19.7224 181.583C8.02052 180.687 0.380102 171.639 0.130564 159.813C-0.093179 149.211 0.0834495 138.6 0.0834495 127.779C11.9948 127.779 23.4932 127.223 34.8905 128.068C39.1237 128.382 43.12 131.978 47.4711 134.347Z" fill="var(--fill-0, #077D57)"/>
<path id="Vector_9" d="M55.5456 0C63.9828 8.01092 72.495 15.8746 80.1609 24.5096C86.5088 31.6599 86.8814 43.6004 80.5031 50.7284C72.7093 59.438 63.6822 67.0145 55.6078 74.6827C48.1958 67.4752 39.5527 59.9838 32.0153 51.4856C24.4005 42.9001 25.6166 30.5441 34.0266 21.6866C40.9616 14.3826 48.1681 7.34323 55.5456 0Z" fill="var(--fill-0, #077D57)"/>
</g>
</svg>
